<svg xmlns="http://www.w3.org/2000/svg" width="22" height="22" viewBox="0 0 22 22">
  <path id="person-circle" d="M59,48A11,11,0,1,0,70,59,11.013,11.013,0,0,0,59,48Zm-2.656,6.178a3.739,3.739,0,0,1,5.306.006,3.549,3.549,0,0,1,.935,2.74A3.907,3.907,0,0,1,59,60.692a3.905,3.905,0,0,1-3.585-3.768A3.564,3.564,0,0,1,56.344,54.178ZM59,68.308a9.281,9.281,0,0,1-6.663-2.815,6.5,6.5,0,0,1,1.858-1.768,9.282,9.282,0,0,1,9.609,0,6.5,6.5,0,0,1,1.86,1.768A9.279,9.279,0,0,1,59,68.308Z" transform="translate(-48 -48)" fill="#999"/>
</svg>
