<svg xmlns="http://www.w3.org/2000/svg" width="354" height="181.804" viewBox="0 0 354 181.804">
  <g id="loading-vector" transform="translate(-229.12 -227.718)">
    <path id="Path_2929" data-name="Path 2929" d="M281.992,228.151c49.8-17.892,100.414-2.074,134.742,32.378S523.1,236.75,561.311,271.146c26.075,23.473,14.131,83.824-21.622,109.964-48.6,35.53-196.385,17.5-228.354,11.455-36.831-6.966-63.757-28.1-74.7-53.753C210.278,277,259.985,236.058,281.992,228.151Z" transform="translate(0 7)" fill="#f5f5f5"/>
    <path id="Path_2933" data-name="Path 2933" d="M745.942,1701.933c-24.994-1.179-110.021.818-135.88,1.6s-55.876-1.028-71.468-3.684-105.72.226-101.63,7.369,40.156,3.2,81.056,6.066,132.884-.359,153.632,0,39.775-.718,66.514-2.153S760.43,1702.617,745.942,1701.933Z" transform="translate(-183.615 -1306.691)" fill="#ddd"/>
    <g id="Group_10062" data-name="Group 10062" transform="translate(529.725 334.166)">
      <path id="Path_2959" data-name="Path 2959" d="M2999.407,1323.431c3.613,3.3,2.042,6.6-.628,12.723s-3.142,28.745-3.142,28.745l2.2-.314s-.314-23.247,2.67-29.531,4.241-9.425,6.912-7.383S2999.407,1323.431,2999.407,1323.431Z" transform="translate(-2974.17 -1308.966)" fill="#74b570"/>
      <path id="Path_2960" data-name="Path 2960" d="M3009.541,1208.927c.438-1.955,3.044-4.07,6.528-5.864-.518,2.883-2.179,7.6-.46,8.564,2.318,1.3.226-5.278,1.121-8.9a43.05,43.05,0,0,1,10.832-3.553c-.005.013-.009.026-.015.04-2.042,5.184-4.712,7.225-3.613,8.011.827.59,3.521-5.4,7.079-8.466,2.67-.142,4.93.22,6.266,1.278,2.066,1.635,3.453,3.086,1.375,8.066a9.336,9.336,0,0,1-4.511,1.635c-4.712.471-6.911.628-3.613,2.2,1.615.769,4.323-.044,6.518-.539-.712,1.312-1.588,2.8-2.652,4.489a16.652,16.652,0,0,1-2.208,2.81,6.967,6.967,0,0,1-3.544-.006c-2.2-.943-7.854-3.927-9.268-2.67-1.383,1.23,10.473,2.009,9.651,5.134-5.747,3.311-12.323,1.736-13.485-1.3C3013.984,1215.772,3008.22,1214.811,3009.541,1208.927Z" transform="translate(-2986.288 -1198.733)" fill="#fe9a48"/>
      <path id="Path_2961" data-name="Path 2961" d="M2977.952,1463.835c-6.283-4.712-12.723-.314-16.022,4.712s-.942,16.336-.942,16.336,1.257,0,1.257-.471-3.456-13.352,4.712-19.163c5.11-3.636,8.8-1.885,9.268-.157s-2.042,4.869-2.042,4.869Z" transform="translate(-2942.819 -1431.307)" fill="#74b570"/>
      <path id="Path_2962" data-name="Path 2962" d="M2986.739,1395.649c6.283,0,8.325,9.739,6.6,15.394s-4.084,16.179-4.084,16.179l-1.571-1.571s5.969-14.765,4.555-21.362-4.87-7.7-5.5-7.7S2986.739,1395.649,2986.739,1395.649Z" transform="translate(-2966.057 -1372.807)" fill="#9cd499"/>
      <path id="Path_2963" data-name="Path 2963" d="M3022.28,1518.141a4.55,4.55,0,0,1,1.654-1.39,12.382,12.382,0,0,1-.327,1.346c-.787,2.576-1.7,6.164-2.471,9.306l-.343-1.979c-.039-.226-.07-.471-.091-.731A60.972,60.972,0,0,0,3022.28,1518.141Z" transform="translate(-2996.328 -1479.862)" fill="#74b570"/>
      <path id="Path_2964" data-name="Path 2964" d="M3024.348,1461.646c11.938-5.026,5.648-11.924,16.173-7.369a1.831,1.831,0,1,1-.785,2.513c-3.142-.471-2.042,2.042,3.141,2.67a11.626,11.626,0,0,1,2.429.512c2.469,4.743,3.583,10.984-1.643,13.153a11.837,11.837,0,0,1-3.719.763c-1.613-1.282.394-8.7-2.092-7.675-2.387.983.748,6.358.318,7.712a34.43,34.43,0,0,1-7.457-1.045,3.711,3.711,0,0,1-1.971-2.269c-.785-3.3,4.4-5.341,4.555-8.168.144-2.6-1.9,5.719-7.316,6.943C3021.082,1467.1,3018.768,1464,3024.348,1461.646Z" transform="translate(-2996.678 -1423.32)" fill="#fe9a48"/>
      <path id="Path_2965" data-name="Path 2965" d="M2829.735,1365.743c1.257-2.67-2.042-3.3-1.885-1.257.139,1.809.155,6.208-1.7,7.405a29.119,29.119,0,0,1-10.846-3.6,1.33,1.33,0,0,1,.138-.819c1.414-2.828,10.524-5.184,7.7-6.126-2.252-.75-6.2,3.68-9.377,5.911-1.91-1.449-3.189-3.176-3.189-5.1,0-2.61,3.171-5.563,7.271-6.975,1.846.186,3.56,1.195,6.238,2.712,3.955,2.241,3.041-1.383-.7-3.533a11.266,11.266,0,0,1,8.822,4.842s-.225,1.409,1.266,3.587c4.067,5.944-.626,9.414-6.238,9.189A36.868,36.868,0,0,1,2829.735,1365.743Z" transform="translate(-2810.571 -1336.304)" fill="#fe9a48"/>
      <path id="Path_2966" data-name="Path 2966" d="M3099.48,1476.555c3.072,2.374,6.484,5.149,10.673,7.034s3.351,8.029,3.351,8.029.628-5.306-2.863-7.121-5.794-3.979-8.448-4.4a38.443,38.443,0,0,1-4.119-.838s.838-1.676.349-2.3S3099.48,1476.555,3099.48,1476.555Z" transform="translate(-3064.726 -1444.293)" fill="#74b570"/>
      <path id="Path_2967" data-name="Path 2967" d="M3068.865,1236.565c-11.24,3-19.479,10.193-21.015,11.938s-1.536,2.234-1.536,2.234l1.187,2.234.558-.279s-.907-1.885,1.466-4.329a42.954,42.954,0,0,1,12.5-9.006C3065.444,1237.891,3068.865,1236.565,3068.865,1236.565Z" transform="translate(-3018.969 -1232.177)" fill="#74b570"/>
      <path id="Rectangle_1637" data-name="Rectangle 1637" d="M7.676,0h0a7.676,7.676,0,0,1,7.676,7.676V15.4a0,0,0,0,1,0,0H0a0,0,0,0,1,0,0V7.676A7.676,7.676,0,0,1,7.676,0Z" transform="translate(28.693 66.606) rotate(180)" fill="#999"/>
      <rect id="Rectangle_1638" data-name="Rectangle 1638" width="15.353" height="1.081" transform="translate(13.34 52.974)" fill="#fff"/>
      <rect id="Rectangle_1639" data-name="Rectangle 1639" width="15.353" height="0.636" transform="translate(13.34 54.944)" fill="#fff"/>
    </g>
    <g id="Group_10063" data-name="Group 10063" transform="translate(262.927 381.34)">
      <rect id="Rectangle_1640" data-name="Rectangle 1640" width="6" height="6" rx="3" transform="translate(29.508 6) rotate(180)" fill="#ccc"/>
      <rect id="Rectangle_1641" data-name="Rectangle 1641" width="6" height="6" rx="3" transform="translate(17.754 6) rotate(180)" fill="#ccc"/>
      <rect id="Rectangle_1642" data-name="Rectangle 1642" width="6" height="6" rx="3" transform="translate(6 6) rotate(180)" fill="#ccc"/>
    </g>
    <g id="Group_10064" data-name="Group 10064" transform="translate(262.88 263.369)">
      <path id="Rectangle_1643" data-name="Rectangle 1643" d="M3,0H3A3,3,0,0,1,6,3V3A3,3,0,0,1,3,6H3A3,3,0,0,1,0,3V3A3,3,0,0,1,3,0Z" transform="translate(6 0) rotate(90)" fill="#ccc"/>
      <path id="Rectangle_1644" data-name="Rectangle 1644" d="M3,0H3A3,3,0,0,1,6,3V3A3,3,0,0,1,3,6H3A3,3,0,0,1,0,3V3A3,3,0,0,1,3,0Z" transform="translate(6 11.754) rotate(90)" fill="#ccc"/>
      <path id="Rectangle_1645" data-name="Rectangle 1645" d="M3,0H3A3,3,0,0,1,6,3V3A3,3,0,0,1,3,6H3A3,3,0,0,1,0,3V3A3,3,0,0,1,3,0Z" transform="translate(6 23.508) rotate(90)" fill="#ccc"/>
    </g>
    <g id="Background_Complete" data-name="Background Complete" transform="translate(332.751 239.895)">
      <g id="Group_10" data-name="Group 10" transform="translate(109.581 36.516)">
        <g id="Group_1" data-name="Group 1" transform="translate(22.225 33.09)">
          <path id="Path_1" data-name="Path 1" d="M401.644,241.564a3.652,3.652,0,1,1-3.652-3.652A3.652,3.652,0,0,1,401.644,241.564Z" transform="translate(-394.341 -237.912)" fill="#ddd"/>
        </g>
        <g id="Group_2" data-name="Group 2" transform="translate(9.532 31.241)">
          <circle id="Ellipse_1" data-name="Ellipse 1" cx="3.89" cy="3.89" r="3.89" transform="translate(0 5.501) rotate(-45)" fill="#ddd"/>
        </g>
        <g id="Group_3" data-name="Group 3" transform="translate(2.569 25.731)">
          <ellipse id="Ellipse_2" data-name="Ellipse 2" cx="4.129" cy="4.129" rx="4.129" ry="4.129" fill="#ddd"/>
        </g>
        <g id="Group_4" data-name="Group 4" transform="translate(0 14.272)">
          <ellipse id="Ellipse_3" data-name="Ellipse 3" cx="4.313" cy="4.313" rx="4.313" ry="4.313" transform="matrix(0.177, -0.984, 0.984, 0.177, 0, 8.49)" fill="#ddd"/>
        </g>
        <g id="Group_5" data-name="Group 5" transform="translate(5.831 5.558)">
          <ellipse id="Ellipse_4" data-name="Ellipse 4" cx="4.457" cy="4.457" rx="4.457" ry="4.457" fill="#ddd"/>
        </g>
        <g id="Group_6" data-name="Group 6" transform="translate(14.084 0)">
          <ellipse id="Ellipse_5" data-name="Ellipse 5" cx="4.858" cy="4.858" rx="4.858" ry="4.858" transform="translate(0 3.746) rotate(-22.683)" fill="#ddd"/>
        </g>
        <g id="Group_7" data-name="Group 7" transform="translate(29.693 25.534)">
          <ellipse id="Ellipse_6" data-name="Ellipse 6" cx="3.527" cy="3.527" rx="3.527" ry="3.527" transform="translate(0 6.867) rotate(-76.77)" fill="#ddd"/>
        </g>
        <g id="Group_8" data-name="Group 8" transform="translate(31.593 14.932)">
          <ellipse id="Ellipse_7" data-name="Ellipse 7" cx="3.274" cy="3.274" rx="3.274" ry="3.274" transform="translate(0 2.342) rotate(-20.955)" fill="#ddd"/>
        </g>
        <g id="Group_9" data-name="Group 9" transform="translate(26.947 6.463)">
          <ellipse id="Ellipse_8" data-name="Ellipse 8" cx="2.991" cy="2.991" rx="2.991" ry="2.991" transform="translate(0 5.905) rotate(-80.805)" fill="#ddd"/>
        </g>
      </g>
      <g id="Group_35" data-name="Group 35" transform="translate(0 0)">
        <g id="Group_34" data-name="Group 34">
          <g id="Group_16" data-name="Group 16" transform="translate(5.592 20.936)">
            <g id="Group_15" data-name="Group 15">
              <g id="Group_14" data-name="Group 14">
                <g id="Group_13" data-name="Group 13">
                  <g id="Group_12" data-name="Group 12">
                    <g id="Group_11" data-name="Group 11">
                      <path id="Path_2" data-name="Path 2" d="M96.794,120.011a14.657,14.657,0,0,1,2.257,3.169l3.607-.014L104,128.982l-3.249,1.567a14.617,14.617,0,0,1-.642,3.838l2.56,2.541-3.165,5.06L96.1,140.8a14.619,14.619,0,0,1-3.17,2.257l.014,3.608-5.816,1.341-1.568-3.249a14.621,14.621,0,0,1-3.838-.643l-2.54,2.56-5.062-3.165,1.189-3.4a14.583,14.583,0,0,1-2.257-3.169l-3.608.014L68.1,131.131l3.25-1.567A14.653,14.653,0,0,1,72,125.727l-2.56-2.54,3.165-5.061,3.4,1.189a14.575,14.575,0,0,1,3.17-2.257l-.014-3.608,5.816-1.341,1.568,3.25a14.626,14.626,0,0,1,3.838.642l2.54-2.56,5.06,3.165-1.188,3.4Zm-7.118,4.761A6.4,6.4,0,1,0,91.71,133.6,6.4,6.4,0,0,0,89.676,124.772Z" transform="translate(-68.103 -112.109)" fill="#e0e0e0"/>
                    </g>
                  </g>
                </g>
              </g>
            </g>
          </g>
          <g id="Group_22" data-name="Group 22" transform="translate(21.912)">
            <g id="Group_21" data-name="Group 21">
              <g id="Group_20" data-name="Group 20">
                <g id="Group_19" data-name="Group 19">
                  <g id="Group_18" data-name="Group 18">
                    <g id="Group_17" data-name="Group 17">
                      <path id="Path_3" data-name="Path 3" d="M126.172,62.369a8.117,8.117,0,0,1,1.25,1.754l2-.007.742,3.22-1.8.868a8.107,8.107,0,0,1-.355,2.125l1.417,1.406-1.753,2.8-1.884-.658a8.074,8.074,0,0,1-1.755,1.25l.008,2-3.22.742-.868-1.8a8.09,8.09,0,0,1-2.125-.356l-1.406,1.418-2.8-1.752.658-1.885a8.094,8.094,0,0,1-1.25-1.755l-2,.008-.742-3.22,1.8-.867a8.125,8.125,0,0,1,.356-2.125l-1.417-1.406,1.752-2.8,1.885.658a8.083,8.083,0,0,1,1.755-1.25l-.008-2,3.22-.742.868,1.8a8.1,8.1,0,0,1,2.125.356l1.406-1.417,2.8,1.752-.658,1.885Zm-3.941,2.636a3.545,3.545,0,1,0,1.126,4.886A3.545,3.545,0,0,0,122.232,65.005Z" transform="translate(-110.288 -57.994)" fill="#e0e0e0"/>
                    </g>
                  </g>
                </g>
              </g>
            </g>
          </g>
          <g id="Group_33" data-name="Group 33" transform="translate(0 4.572)">
            <g id="Group_32" data-name="Group 32">
              <g id="Group_31" data-name="Group 31">
                <g id="Group_30" data-name="Group 30">
                  <g id="Group_29" data-name="Group 29">
                    <g id="Group_28" data-name="Group 28">
                      <g id="Group_23" data-name="Group 23" transform="translate(0.103 0.075)">
                        <path id="Path_4" data-name="Path 4" d="M66.785,73.549A6.581,6.581,0,0,1,67.8,74.97l1.618-.006.6,2.609-1.458.7A6.549,6.549,0,0,1,68.272,80l1.148,1.139L68,83.408l-1.527-.534a6.557,6.557,0,0,1-1.422,1.013l.006,1.618-2.609.6-.7-1.458a6.564,6.564,0,0,1-1.722-.289l-1.139,1.149-2.271-1.42.534-1.527a6.552,6.552,0,0,1-1.012-1.422l-1.619.006-.6-2.609,1.458-.7a6.581,6.581,0,0,1,.288-1.722l-1.148-1.139,1.419-2.27,1.527.534a6.545,6.545,0,0,1,1.422-1.013l-.006-1.618,2.609-.6.7,1.458a6.563,6.563,0,0,1,1.722.288L65.048,70.6l2.27,1.419-.533,1.527Zm-3.193,2.136a2.872,2.872,0,1,0,.912,3.959A2.872,2.872,0,0,0,63.592,75.685Z" transform="translate(-53.915 -70.004)" fill="none"/>
                      </g>
                      <g id="Group_25" data-name="Group 25" transform="translate(5.301 5.269)">
                        <g id="Group_24" data-name="Group 24">
                          <path id="Path_5" data-name="Path 5" d="M71.83,83.916a.692.692,0,0,1,.161.09,2.267,2.267,0,0,1,.412.333,2.859,2.859,0,0,1,.826,1.743,2.9,2.9,0,0,1-.178,1.343,2.945,2.945,0,0,1-.923,1.252,2.953,2.953,0,0,1-1.6.624,2.938,2.938,0,0,1-2.969-1.856,2.952,2.952,0,0,1-.139-1.713,2.944,2.944,0,0,1,.721-1.378,2.9,2.9,0,0,1,1.13-.747,2.858,2.858,0,0,1,1.929-.021,2.3,2.3,0,0,1,.48.224.719.719,0,0,1,.151.105c-.01.019-.222-.128-.653-.262a2.865,2.865,0,0,0-1.861.074,2.8,2.8,0,0,0-1.733,2.041,2.8,2.8,0,0,0,.141,1.611,2.775,2.775,0,0,0,2.789,1.744,2.8,2.8,0,0,0,1.51-.578A2.8,2.8,0,0,0,73.1,86.095a2.862,2.862,0,0,0-.749-1.706C72.042,84.059,71.817,83.934,71.83,83.916Z" transform="translate(-67.35 -83.43)" fill="#e0e0e0"/>
                        </g>
                      </g>
                      <g id="Group_27" data-name="Group 27">
                        <g id="Group_26" data-name="Group 26">
                          <path id="Path_6" data-name="Path 6" d="M66.622,73.43a.569.569,0,0,1,.027-.1l.094-.291.385-1.149.012.034-2.279-1.405.057-.007-1.134,1.153-.022.023-.031-.009a6.532,6.532,0,0,0-1.708-.279h-.036l-.016-.033-.708-1.455.073.035-2.607.608.056-.07c0,.5.006,1.053.01,1.618v.046l-.04.021a6.5,6.5,0,0,0-1.4,1l-.034.032-.045-.016-1.528-.531.1-.034L54.422,74.9l-.012-.1,1.149,1.138.037.037-.015.05a6.537,6.537,0,0,0-.283,1.7l0,.053-.048.023-1.457.7.048-.1.6,2.609-.089-.07,1.619-.007h.055l.026.049a6.483,6.483,0,0,0,1,1.4h0c.009.041-.019-.092.02.092v0l0,.006,0,.012-.009.024-.017.048-.033.1-.067.192-.134.383L56.537,84l-.038-.107,2.27,1.42-.111.013L59.8,84.18l.038-.038.051.016a6.487,6.487,0,0,0,1.7.286l.054,0,.023.048.7,1.458-.1-.047,2.609-.6-.065.082q0-.824,0-1.619v-.05l.044-.023a6.488,6.488,0,0,0,1.406-1l.035-.033.045.015,1.526.536-.089.031L69.2,80.982l.01.086-1.145-1.142-.028-.028.012-.038a6.538,6.538,0,0,0,.291-1.7V78.12l.033-.015,1.46-.7-.029.06-.588-2.612.04.031-1.618-.005h-.018l-.008-.015a6.846,6.846,0,0,0-.713-1.1l-.206-.251a.643.643,0,0,1-.067-.084.745.745,0,0,1,.079.074c.05.052.125.131.218.242a6.313,6.313,0,0,1,.742,1.092l-.026-.015,1.618-.018h.033l.007.032.614,2.606.01.041-.039.019-1.455.708.034-.052a6.627,6.627,0,0,1-.286,1.739l-.016-.065,1.151,1.136.039.039-.029.048L67.9,83.33l-.032.051-.057-.02-1.528-.53.08-.017a6.628,6.628,0,0,1-1.438,1.027l.043-.072q0,.8.008,1.618v.067l-.065.015-2.608.6-.067.015-.03-.062-.7-1.457.077.05a6.631,6.631,0,0,1-1.745-.291l.09-.022-1.139,1.149-.051.051-.061-.038L56.4,84.049l-.062-.039.024-.068q.132-.379.266-.761l.133-.383.067-.192.033-.1.017-.048.009-.024,0-.012,0-.006v0c.039.184.01.051.019.092h0a6.64,6.64,0,0,1-1.026-1.44l.08.048-1.618.006h-.072l-.016-.07c-.206-.9-.41-1.783-.6-2.609l-.016-.07.064-.031,1.459-.7-.05.077a6.68,6.68,0,0,1,.293-1.744l.022.087L54.29,74.915l-.048-.048.036-.057L55.7,72.542l.034-.055.061.022,1.526.536-.079.017a6.63,6.63,0,0,1,1.44-1.022l-.04.067c0-.566,0-1.118,0-1.619V70.43l.056-.013,2.61-.595.051-.012.022.046.7,1.46-.052-.034a6.629,6.629,0,0,1,1.736.3l-.053.014,1.144-1.143.026-.026.031.02,2.261,1.434.02.012-.008.022-.41,1.127-.109.291A.668.668,0,0,1,66.622,73.43Z" transform="translate(-53.649 -69.811)" fill="#e0e0e0"/>
                        </g>
                      </g>
                    </g>
                  </g>
                </g>
              </g>
            </g>
          </g>
        </g>
      </g>
    </g>
    <g id="Screen" transform="translate(370.088 233.24)">
      <g id="Group_106" data-name="Group 106" transform="translate(0 0)">
        <g id="Group_47" data-name="Group 47" transform="translate(0.032)">
          <g id="Group_46" data-name="Group 46">
            <g id="Group_45" data-name="Group 45">
              <g id="Group_44" data-name="Group 44">
                <g id="Group_43" data-name="Group 43">
                  <g id="Group_42" data-name="Group 42">
                    <g id="Group_41" data-name="Group 41">
                      <g id="Group_40" data-name="Group 40">
                        <g id="Group_39" data-name="Group 39">
                          <g id="Group_36" data-name="Group 36" transform="translate(0.099 0.071)">
                            <path id="Path_8" data-name="Path 8" d="M218.56,41.246l-11.375-.052a2.826,2.826,0,0,0-2.774,2.875l-.009,2.063a2.826,2.826,0,0,1-2.774,2.875l-22.172-.1a2.829,2.829,0,0,1-2.75-2.9l.009-2.063a2.829,2.829,0,0,0-2.75-2.9l-4-.019-9.956-.046a8.951,8.951,0,0,0-8.991,8.913l-.607,143.562a8.95,8.95,0,0,0,8.909,8.989l58.551.27a8.95,8.95,0,0,0,8.991-8.912l.607-143.563A8.95,8.95,0,0,0,218.56,41.246Z" transform="translate(-150.411 -40.976)" fill="#fff"/>
                          </g>
                          <g id="Group_38" data-name="Group 38">
                            <g id="Group_37" data-name="Group 37">
                              <path id="Path_9" data-name="Path 9" d="M218.4,41.134s.1,0,.306.012a6.748,6.748,0,0,1,.906.075,8.43,8.43,0,0,1,3.351,1.175A8.586,8.586,0,0,1,225,44.058a8.948,8.948,0,0,1,1.691,2.678,9.259,9.259,0,0,1,.654,3.634q-.006,1.982-.013,4.219c-.043,11.926-.1,29.18-.181,50.5s-.184,46.708-.3,74.9q-.021,5.286-.043,10.7-.006,1.353-.011,2.714a9.546,9.546,0,0,1-.353,2.722,9.025,9.025,0,0,1-1.151,2.511,9.663,9.663,0,0,1-1.868,2.056,9.03,9.03,0,0,1-5.163,1.98c-.472.031-.938.025-1.4.022l-1.4-.007-2.816-.012-11.4-.051-23.393-.107-11.965-.055-6.043-.028a9.43,9.43,0,0,1-5.808-1.629,9.137,9.137,0,0,1-3.519-4.9,9.83,9.83,0,0,1-.36-3.022q.006-1.511.013-3.018.026-6.025.051-11.968.051-11.884.1-23.4c.067-15.341.132-30.139.193-44.236s.122-27.492.178-40.028q.043-9.4.082-18.14.005-1.091.01-2.171c.006-.361.034-.724.055-1.084.064-.355.093-.717.187-1.064a9.13,9.13,0,0,1,1.894-3.777,9.064,9.064,0,0,1,7.3-3.2l7.8.039,3.753.019,1.839.009a2.85,2.85,0,0,1,1.751.5,2.944,2.944,0,0,1,1.083,1.435,4.779,4.779,0,0,1,.174,1.763q0,.438,0,.871a6.517,6.517,0,0,0,.025.855,2.847,2.847,0,0,0,.666,1.509,2.653,2.653,0,0,0,1.372.859,3.047,3.047,0,0,0,.81.083l.824,0,3.23.017,11.8.063,5.2.029c.411-.006.828.022,1.221-.011a2.643,2.643,0,0,0,1.1-.383,2.845,2.845,0,0,0,1.266-1.805,4.964,4.964,0,0,0,.074-1.089q0-.543.006-1.07a6.111,6.111,0,0,1,.051-1.042,3.028,3.028,0,0,1,.34-.955,2.818,2.818,0,0,1,1.43-1.254,4.484,4.484,0,0,1,1.775-.182l5.805.036,3.571.026c.8.007,1.216.016,1.216.016s-.412.005-1.216,0l-3.571-.006-5.806-.017a4.431,4.431,0,0,0-1.751.183,2.751,2.751,0,0,0-1.393,1.228,2.965,2.965,0,0,0-.33.933,6.066,6.066,0,0,0-.047,1.03q0,.528,0,1.07a5.027,5.027,0,0,1-.074,1.1,2.924,2.924,0,0,1-1.3,1.859,2.727,2.727,0,0,1-1.136.4c-.412.034-.814.007-1.23.014l-5.2-.02-11.8-.046-3.23-.013-.825,0a3.17,3.17,0,0,1-.838-.085,2.775,2.775,0,0,1-1.435-.9,2.966,2.966,0,0,1-.7-1.572,6.586,6.586,0,0,1-.027-.871q0-.434,0-.871a4.671,4.671,0,0,0-.168-1.72,2.818,2.818,0,0,0-1.038-1.371,2.714,2.714,0,0,0-1.678-.471l-1.839-.008-3.753-.015-7.8-.032a8.92,8.92,0,0,0-7.182,3.152,8.983,8.983,0,0,0-1.859,3.716c-.092.341-.12.7-.183,1.046-.02.355-.046.708-.053,1.068q0,1.08-.008,2.171-.034,8.729-.071,18.141c-.05,12.536-.1,25.932-.16,40.028s-.118,28.895-.181,44.236q-.048,11.506-.1,23.4-.025,5.942-.05,11.968-.006,1.507-.013,3.018a9.628,9.628,0,0,0,.352,2.965,8.934,8.934,0,0,0,3.441,4.792,9.224,9.224,0,0,0,5.694,1.592l6.043.028,11.965.055,23.394.109,11.4.054,2.816.014,1.4.007c.467,0,.935.01,1.393-.021a8.838,8.838,0,0,0,5.053-1.936,9.47,9.47,0,0,0,1.829-2.012,8.847,8.847,0,0,0,1.127-2.457,9.348,9.348,0,0,0,.347-2.671q.006-1.361.012-2.714.024-5.413.047-10.7c.127-28.189.242-53.575.338-74.9s.188-38.574.246-50.5q.012-2.236.022-4.219a9.2,9.2,0,0,0-.64-3.611,8.9,8.9,0,0,0-1.673-2.666,8.563,8.563,0,0,0-2.017-1.662,8.473,8.473,0,0,0-3.333-1.189,7.04,7.04,0,0,0-.9-.086C218.506,41.143,218.4,41.134,218.4,41.134Z" transform="translate(-150.155 -40.792)" fill="#263238"/>
                            </g>
                          </g>
                        </g>
                      </g>
                    </g>
                  </g>
                </g>
              </g>
            </g>
          </g>
        </g>
        <g id="Group_68" data-name="Group 68" transform="translate(16.137 36.713)">
          <g id="Group_48" data-name="Group 48" transform="translate(19.782 2.273)">
            <path id="Path_10" data-name="Path 10" d="M264.814,148.12l-.879-1.044,2.617-1.4L254.4,141.561l4.113,11.778,1.5-1.963s7.863,13.835,0,22.246C252.2,181.975,243,180.165,243,180.165l1.776,5.8s14.488,1.028,22.246-12.058S264.814,148.12,264.814,148.12Z" transform="translate(-242.997 -141.561)" fill="#e8505b"/>
          </g>
          <g id="Group_49" data-name="Group 49">
            <path id="Path_11" data-name="Path 11" d="M197.027,173.547l.879,1.044-2.617,1.4,12.151,4.113-4.113-11.777-1.5,1.963s-7.863-13.836,0-22.246c7.808-8.353,17.012-6.543,17.012-6.543l-1.776-5.8s-14.488-1.028-22.246,12.058S197.027,173.547,197.027,173.547Z" transform="translate(-191.865 -135.687)" fill="#e8505b"/>
          </g>
          <g id="Group_50" data-name="Group 50" transform="translate(19.782 2.273)">
            <path id="Path_12" data-name="Path 12" d="M264.814,148.12l-.879-1.044,2.617-1.4L254.4,141.561l4.113,11.778,1.5-1.963s7.863,13.835,0,22.246C252.2,181.975,243,180.165,243,180.165l1.776,5.8s14.488,1.028,22.246-12.058S264.814,148.12,264.814,148.12Z" transform="translate(-242.997 -141.561)" fill="#e8505b"/>
          </g>
          <g id="Group_51" data-name="Group 51">
            <path id="Path_13" data-name="Path 13" d="M197.027,173.547l.879,1.044-2.617,1.4,12.151,4.113-4.113-11.777-1.5,1.963s-7.863-13.836,0-22.246c7.808-8.353,17.012-6.543,17.012-6.543l-1.776-5.8s-14.488-1.028-22.246,12.058S197.027,173.547,197.027,173.547Z" transform="translate(-191.865 -135.687)" fill="#e8505b"/>
          </g>
          <g id="Group_52" data-name="Group 52" transform="translate(19.782 2.273)" opacity="0.8">
            <path id="Path_14" data-name="Path 14" d="M264.814,148.12l-.879-1.044,2.617-1.4L254.4,141.561l4.113,11.778,1.5-1.963s7.863,13.835,0,22.246C252.2,181.975,243,180.165,243,180.165l1.776,5.8s14.488,1.028,22.246-12.058S264.814,148.12,264.814,148.12Z" transform="translate(-242.997 -141.561)" fill="#fff"/>
          </g>
          <g id="Group_53" data-name="Group 53" opacity="0.8">
            <path id="Path_15" data-name="Path 15" d="M197.027,173.547l.879,1.044-2.617,1.4,12.151,4.113-4.113-11.777-1.5,1.963s-7.863-13.836,0-22.246c7.808-8.353,17.012-6.543,17.012-6.543l-1.776-5.8s-14.488-1.028-22.246,12.058S197.027,173.547,197.027,173.547Z" transform="translate(-191.865 -135.687)" fill="#fff"/>
          </g>
          <g id="Group_60" data-name="Group 60" transform="translate(11.738 11.361)">
            <g id="Group_59" data-name="Group 59">
              <g id="Group_58" data-name="Group 58">
                <g id="Group_57" data-name="Group 57">
                  <g id="Group_56" data-name="Group 56">
                    <g id="Group_55" data-name="Group 55">
                      <g id="Group_54" data-name="Group 54">
                        <path id="Path_16" data-name="Path 16" d="M240.777,170.168a9.485,9.485,0,0,1,1.461,2.051l2.335-.009.868,3.765-2.1,1.014a9.474,9.474,0,0,1-.416,2.484l1.657,1.644-2.049,3.276-2.2-.77a9.455,9.455,0,0,1-2.052,1.461l.009,2.335-3.764.868-1.015-2.1a9.46,9.46,0,0,1-2.484-.416l-1.644,1.657-3.276-2.049.77-2.2a9.455,9.455,0,0,1-1.461-2.052l-2.336.009-.868-3.765,2.1-1.014a9.487,9.487,0,0,1,.416-2.484l-1.657-1.644,2.049-3.276,2.2.77a9.446,9.446,0,0,1,2.052-1.461l-.009-2.336,3.764-.868,1.015,2.1a9.487,9.487,0,0,1,2.484.416l1.644-1.657,3.275,2.048-.769,2.2Zm-4.607,3.082a4.144,4.144,0,1,0,1.317,5.711A4.144,4.144,0,0,0,236.17,173.25Z" transform="translate(-222.206 -165.053)" fill="#fe9a48"/>
                      </g>
                    </g>
                  </g>
                </g>
              </g>
            </g>
          </g>
          <g id="Group_67" data-name="Group 67" transform="translate(19.36 18.927)" opacity="0.6">
            <g id="Group_66" data-name="Group 66">
              <g id="Group_65" data-name="Group 65">
                <g id="Group_64" data-name="Group 64">
                  <g id="Group_63" data-name="Group 63">
                    <g id="Group_62" data-name="Group 62">
                      <g id="Group_61" data-name="Group 61">
                        <path id="Path_17" data-name="Path 17" d="M248.248,185.24a4.144,4.144,0,1,0,1.317,5.711A4.144,4.144,0,0,0,248.248,185.24Z" transform="translate(-241.906 -184.609)" fill="#fff"/>
                      </g>
                    </g>
                  </g>
                </g>
              </g>
            </g>
          </g>
        </g>
        <g id="Group_91" data-name="Group 91" transform="translate(64.636 14.22)">
          <g id="Group_80" data-name="Group 80">
            <g id="Group_79" data-name="Group 79">
              <g id="Group_78" data-name="Group 78">
                <g id="Group_77" data-name="Group 77">
                  <g id="Group_76" data-name="Group 76">
                    <path id="Path_24" data-name="Path 24" d="M324.232,77.6c0,.041-1.568.087-3.5.1s-3.5,0-3.5-.045,1.567-.087,3.5-.1S324.232,77.558,324.232,77.6Z" transform="translate(-317.227 -77.548)" fill="#263238"/>
                  </g>
                </g>
              </g>
            </g>
          </g>
          <g id="Group_85" data-name="Group 85" transform="translate(0.015 1.792)">
            <g id="Group_84" data-name="Group 84">
              <g id="Group_83" data-name="Group 83">
                <g id="Group_82" data-name="Group 82">
                  <g id="Group_81" data-name="Group 81">
                    <path id="Path_25" data-name="Path 25" d="M324.27,82.231c0,.041-1.568.087-3.5.1s-3.5,0-3.5-.045,1.567-.087,3.5-.1S324.27,82.191,324.27,82.231Z" transform="translate(-317.265 -82.181)" fill="#263238"/>
                  </g>
                </g>
              </g>
            </g>
          </g>
          <g id="Group_90" data-name="Group 90" transform="translate(0.029 3.585)">
            <g id="Group_89" data-name="Group 89">
              <g id="Group_88" data-name="Group 88">
                <g id="Group_87" data-name="Group 87">
                  <g id="Group_86" data-name="Group 86">
                    <path id="Path_26" data-name="Path 26" d="M324.308,86.864c0,.041-1.568.087-3.5.1s-3.5,0-3.5-.045,1.568-.087,3.5-.1S324.308,86.823,324.308,86.864Z" transform="translate(-317.303 -86.813)" fill="#263238"/>
                  </g>
                </g>
              </g>
            </g>
          </g>
        </g>
        <g id="Group_96" data-name="Group 96" transform="translate(7.853 14.037)">
          <g id="Group_95" data-name="Group 95">
            <g id="Group_94" data-name="Group 94">
              <g id="Group_93" data-name="Group 93">
                <g id="Group_92" data-name="Group 92">
                  <path id="Path_27" data-name="Path 27" d="M170.53,82.939a1.071,1.071,0,0,1,.146-.01l.405-.014,1.5-.036-.041.042c-.005-.332-.011-.694-.018-1.085,0-.2-.017-.392,0-.624a.575.575,0,0,1,.5-.461c.241,0,.453-.015.715,0a.58.58,0,0,1,.491.578q.009.759.018,1.582l-.069-.068,1.887-.019-.072.073c-.007-.76-.014-1.546-.021-2.351q0-.3-.005-.6a.609.609,0,0,0-.265-.446l-.825-.813-.8-.785-.385-.381c-.133-.128-.237-.26-.39-.291a.509.509,0,0,0-.433.083c-.114.1-.236.233-.351.345l-.677.683c-.426.443-.869.846-1.192,1.228a1.338,1.338,0,0,0-.1.7q0,.351,0,.665,0,.612-.007,1.071c0,.274-.005.5-.007.685a2.421,2.421,0,0,1-.009.247,1.772,1.772,0,0,1-.013-.227c-.005-.182-.012-.4-.019-.674l-.024-1.079q-.006-.32-.013-.678,0-.181-.006-.371a.785.785,0,0,1,.1-.4c.349-.428.766-.806,1.195-1.262l.672-.688c.121-.119.22-.237.364-.361a.642.642,0,0,1,.547-.108,1.013,1.013,0,0,1,.453.324l.387.379.8.783.826.811a1.588,1.588,0,0,1,.211.228.618.618,0,0,1,.1.318q0,.3.005.6c.006.805.012,1.591.018,2.351v.072h-.072l-1.887.012h-.069v-.069c0-.548-.005-1.076-.008-1.582a.455.455,0,0,0-.381-.458c-.217-.012-.473,0-.684,0a.463.463,0,0,0-.407.367c-.018.19,0,.411-.008.6,0,.391,0,.753,0,1.085v.043h-.041l-1.521-.011-.4-.007A.751.751,0,0,1,170.53,82.939Z" transform="translate(-170.455 -77.075)" fill="#263238"/>
                </g>
              </g>
            </g>
          </g>
        </g>
        <g id="Group_98" data-name="Group 98" transform="translate(27.963 18.271)">
          <g id="Group_97" data-name="Group 97">
            <path id="Path_28" data-name="Path 28" d="M248.766,88.119c0,.056-5.9.1-13.166.1s-13.167-.045-13.167-.1,5.894-.1,13.167-.1S248.766,88.063,248.766,88.119Z" transform="translate(-222.433 -88.018)" fill="#263238"/>
          </g>
        </g>
        <g id="Group_103" data-name="Group 103" transform="translate(12.972 110.212)">
          <g id="Group_102" data-name="Group 102">
            <path id="Path_35" data-name="Path 35" d="M236.775,325.767c0,.056-11.886.1-26.544.1s-26.546-.045-26.546-.1,11.883-.1,26.546-.1S236.775,325.711,236.775,325.767Z" transform="translate(-183.685 -325.666)" fill="#263238"/>
          </g>
        </g>
        <g id="Group_105" data-name="Group 105" transform="translate(23.548 113.466)">
          <g id="Group_104" data-name="Group 104">
            <path id="Path_36" data-name="Path 36" d="M242.961,334.179c0,.056-7.15.1-15.968.1s-15.97-.045-15.97-.1,7.148-.1,15.97-.1S242.961,334.123,242.961,334.179Z" transform="translate(-211.023 -334.078)" fill="#263238"/>
          </g>
        </g>
        <g id="Group_10073" data-name="Group 10073" transform="translate(23.548 97.466)">
          <g id="Group_104-2" data-name="Group 104">
            <path id="Path_36-2" data-name="Path 36" d="M242.961,334.179c0,.056-7.15.1-15.968.1s-15.97-.045-15.97-.1,7.148-.1,15.97-.1S242.961,334.123,242.961,334.179Z" transform="translate(-211.023 -334.078)" fill="#263238"/>
          </g>
        </g>
        <rect id="Rectangle_1646" data-name="Rectangle 1646" width="32" height="12" rx="6" transform="translate(23.032 123.81)" fill="#fe9a48"/>
      </g>
    </g>
    <g id="Character" transform="translate(348.849 269.235)">
      <g id="Group_379" data-name="Group 379" transform="translate(0 0)">
        <g id="Group_130" data-name="Group 130" transform="translate(0.039 126.006)">
          <g id="Group_121" data-name="Group 121">
            <g id="Group_120" data-name="Group 120">
              <g id="Group_110" data-name="Group 110">
                <g id="Group_109" data-name="Group 109">
                  <g id="Group_108" data-name="Group 108">
                    <g id="Group_107" data-name="Group 107">
                      <path id="Path_37" data-name="Path 37" d="M99.848,458.243l-2.227,8.234,7.238.661,1.521-7.839Z" transform="translate(-97.621 -458.243)" fill="#777"/>
                    </g>
                  </g>
                </g>
              </g>
              <g id="Group_115" data-name="Group 115" transform="translate(0.275 7.375)">
                <g id="Group_114" data-name="Group 114">
                  <g id="Group_113" data-name="Group 113">
                    <g id="Group_112" data-name="Group 112">
                      <g id="Group_111" data-name="Group 111">
                        <path id="Path_38" data-name="Path 38" d="M105.544,479.211a5.118,5.118,0,0,1-1.06-.036c-.652-.052-1.551-.152-2.54-.279l-2.53-.339a5.952,5.952,0,0,1-1.044-.181,5.181,5.181,0,0,1,1.06.039c.652.054,1.55.154,2.54.281l2.529.337A6,6,0,0,1,105.544,479.211Z" transform="translate(-98.371 -478.362)" fill="#263238"/>
                      </g>
                    </g>
                  </g>
                </g>
              </g>
              <g id="Group_119" data-name="Group 119" transform="translate(0 7.383)" opacity="0.6">
                <g id="Group_118" data-name="Group 118">
                  <g id="Group_117" data-name="Group 117">
                    <g id="Group_116" data-name="Group 116">
                      <path id="Path_39" data-name="Path 39" d="M97.621,479.235l7.238.661.117-.6-7.146-.908-.2.77" transform="translate(-97.621 -478.383)" fill="#fff"/>
                    </g>
                  </g>
                </g>
              </g>
            </g>
          </g>
          <g id="Group_125" data-name="Group 125" transform="translate(3.591 1.599)">
            <g id="Group_124" data-name="Group 124">
              <g id="Group_123" data-name="Group 123">
                <g id="Group_122" data-name="Group 122">
                  <path id="Path_40" data-name="Path 40" d="M107.422,468.873a61.236,61.236,0,0,1,1.541-6.269,61.252,61.252,0,0,1-1.541,6.269Z" transform="translate(-107.418 -462.604)" fill="#263238"/>
                </g>
              </g>
            </g>
          </g>
          <g id="Group_129" data-name="Group 129" transform="translate(0.937 4.195)">
            <g id="Group_128" data-name="Group 128">
              <g id="Group_127" data-name="Group 127">
                <g id="Group_126" data-name="Group 126">
                  <path id="Path_41" data-name="Path 41" d="M106.288,473.662a3.481,3.481,0,0,0,.016-1.53,3.048,3.048,0,0,0-.792-1.433,2.964,2.964,0,0,0-1.8-.828,3.085,3.085,0,0,0-1.938.441,3.36,3.36,0,0,0-1.127,1.2,4.288,4.288,0,0,0-.457,1.468c-.006,0-.01-.037-.011-.109a2.214,2.214,0,0,1,.017-.313,3.294,3.294,0,0,1,.345-1.1,3.376,3.376,0,0,1,1.149-1.273,3.183,3.183,0,0,1,2.039-.478,2.985,2.985,0,0,1,2.694,2.4,2.859,2.859,0,0,1,0,1.156,1.948,1.948,0,0,1-.089.3C106.31,473.63,106.293,473.664,106.288,473.662Z" transform="translate(-100.177 -469.686)" fill="#263238"/>
                </g>
              </g>
            </g>
          </g>
        </g>
        <g id="Group_166" data-name="Group 166" transform="translate(24.763 123.562)">
          <g id="Group_157" data-name="Group 157">
            <g id="Group_133" data-name="Group 133">
              <g id="Group_132" data-name="Group 132">
                <g id="Group_131" data-name="Group 131">
                  <path id="Path_42" data-name="Path 42" d="M172.457,451.81l-.485,7.315s7.281,2.416,7.323,3.777l-14.226.1.287-11.43Z" transform="translate(-165.07 -451.576)" fill="#777"/>
                </g>
              </g>
            </g>
            <g id="Group_137" data-name="Group 137" transform="translate(2.094 6.78)" opacity="0.6">
              <g id="Group_136" data-name="Group 136">
                <g id="Group_135" data-name="Group 135">
                  <g id="Group_134" data-name="Group 134">
                    <path id="Path_43" data-name="Path 43" d="M171.214,470.093a.581.581,0,0,0-.422.65.559.559,0,0,0,.641.424.613.613,0,0,0,.443-.691.579.579,0,0,0-.716-.367" transform="translate(-170.783 -470.073)" fill="#fff"/>
                  </g>
                </g>
              </g>
            </g>
            <g id="Group_140" data-name="Group 140" transform="translate(0 10.278)" opacity="0.6">
              <g id="Group_139" data-name="Group 139">
                <g id="Group_138" data-name="Group 138">
                  <path id="Path_44" data-name="Path 44" d="M165.07,480.766l.029-1.152,13.74.379a.983.983,0,0,1,.529.773Z" transform="translate(-165.07 -479.614)" fill="#fff"/>
                </g>
              </g>
            </g>
            <g id="Group_144" data-name="Group 144" transform="translate(5.816 7.413)">
              <g id="Group_143" data-name="Group 143">
                <g id="Group_142" data-name="Group 142">
                  <g id="Group_141" data-name="Group 141">
                    <path id="Path_45" data-name="Path 45" d="M182.256,471.871c0,.069-.353.09-.7.3s-.539.5-.6.47.052-.427.479-.678S182.273,471.808,182.256,471.871Z" transform="translate(-180.937 -471.8)" fill="#263238"/>
                  </g>
                </g>
              </g>
            </g>
            <g id="Group_148" data-name="Group 148" transform="translate(7.637 8.116)">
              <g id="Group_147" data-name="Group 147">
                <g id="Group_146" data-name="Group 146">
                  <g id="Group_145" data-name="Group 145">
                    <path id="Path_46" data-name="Path 46" d="M186.875,473.747c.014.068-.29.177-.535.463s-.322.595-.391.59-.1-.4.21-.75S186.876,473.681,186.875,473.747Z" transform="translate(-185.905 -473.716)" fill="#263238"/>
                  </g>
                </g>
              </g>
            </g>
            <g id="Group_152" data-name="Group 152" transform="translate(9.325 8.775)">
              <g id="Group_151" data-name="Group 151">
                <g id="Group_150" data-name="Group 150">
                  <g id="Group_149" data-name="Group 149">
                    <path id="Path_47" data-name="Path 47" d="M190.586,476.7c-.064.013-.15-.337.04-.712s.519-.516.547-.457-.18.256-.331.566S190.655,476.691,190.586,476.7Z" transform="translate(-190.51 -475.514)" fill="#263238"/>
                  </g>
                </g>
              </g>
            </g>
            <g id="Group_156" data-name="Group 156" transform="translate(5.58 5.534)">
              <g id="Group_155" data-name="Group 155">
                <g id="Group_154" data-name="Group 154">
                  <g id="Group_153" data-name="Group 153">
                    <path id="Path_48" data-name="Path 48" d="M181.774,466.945c-.031.063-.347-.043-.74-.028s-.7.129-.737.069.267-.3.731-.31S181.81,466.891,181.774,466.945Z" transform="translate(-180.294 -466.674)" fill="#263238"/>
                  </g>
                </g>
              </g>
            </g>
          </g>
          <g id="Group_161" data-name="Group 161" transform="translate(4.994 3.127)">
            <g id="Group_160" data-name="Group 160">
              <g id="Group_159" data-name="Group 159">
                <g id="Group_158" data-name="Group 158">
                  <path id="Path_49" data-name="Path 49" d="M180.832,461.308a1.335,1.335,0,0,1-.712-.025,3.192,3.192,0,0,1-.738-.251,3.368,3.368,0,0,1-.4-.229.883.883,0,0,1-.21-.174.3.3,0,0,1-.021-.37.382.382,0,0,1,.309-.15.918.918,0,0,1,.266.045,2.519,2.519,0,0,1,1.082.616c.32.316.425.578.4.591s-.186-.2-.514-.463a2.843,2.843,0,0,0-.624-.377,2.677,2.677,0,0,0-.405-.139c-.15-.044-.277-.049-.318.017-.015.025-.017.035.013.08a.723.723,0,0,0,.154.127,3.705,3.705,0,0,0,.37.226,3.954,3.954,0,0,0,.68.285A4.9,4.9,0,0,1,180.832,461.308Z" transform="translate(-178.695 -460.108)" fill="#263238"/>
                </g>
              </g>
            </g>
          </g>
          <g id="Group_165" data-name="Group 165" transform="translate(6.871 2.181)">
            <g id="Group_164" data-name="Group 164">
              <g id="Group_163" data-name="Group 163">
                <g id="Group_162" data-name="Group 162">
                  <path id="Path_50" data-name="Path 50" d="M183.981,459.77a1.135,1.135,0,0,1-.167-.694,2.309,2.309,0,0,1,.121-.776,2.333,2.333,0,0,1,.194-.427.589.589,0,0,1,.465-.346.333.333,0,0,1,.291.207.97.97,0,0,1,.065.263,1.581,1.581,0,0,1-.014.48,1.635,1.635,0,0,1-.327.726c-.289.36-.581.434-.586.411-.022-.036.224-.162.447-.51a1.643,1.643,0,0,0,.246-.662,1.476,1.476,0,0,0,0-.412c-.018-.152-.071-.275-.128-.262-.071,0-.195.107-.256.226a2.347,2.347,0,0,0-.188.38,2.562,2.562,0,0,0-.159.706C183.953,459.5,184.019,459.76,183.981,459.77Z" transform="translate(-183.814 -457.527)" fill="#263238"/>
                </g>
              </g>
            </g>
          </g>
        </g>
        <g id="Group_277" data-name="Group 277" transform="translate(0 60.079)">
          <g id="Group_168" data-name="Group 168">
            <g id="Group_167" data-name="Group 167">
              <path id="Path_51" data-name="Path 51" d="M129.666,278.55l-21.676-.163-10.474,68.8,9,1.142,11.529-56.566,3.451,56.767.009.169,9.729-.17Z" transform="translate(-97.515 -278.387)" fill="#444"/>
            </g>
          </g>
          <g id="Group_170" data-name="Group 170" transform="translate(22.214 5.526)">
            <g id="Group_169" data-name="Group 169">
              <path id="Path_52" data-name="Path 52" d="M158.194,293.674a3.694,3.694,0,0,1,.448-.029l1.3-.048,4.685-.133.089,0v.091c0,1.359.007,2.879.011,4.493v.043l-.032.03-.816.75-2.4,2.2-.064.058-.064-.057-3.207-2.858-.026-.023v-.034c.017-1.366.03-2.489.041-3.3.008-.368.014-.663.019-.889a1.942,1.942,0,0,1,.017-.3,2.811,2.811,0,0,1,.017.329c.005.23.011.531.019.905.01.8.024,1.9.041,3.25l-.026-.058,3.231,2.83h-.128l2.4-2.21.817-.75-.032.073c0-1.614.008-3.134.011-4.493l.089.088-4.63.044-1.324,0-.356,0A.72.72,0,0,1,158.194,293.674Z" transform="translate(-158.117 -293.462)" fill="#455a64"/>
            </g>
          </g>
          <g id="Group_172" data-name="Group 172" transform="translate(11.463 5.438)">
            <g id="Group_171" data-name="Group 171">
              <path id="Path_53" data-name="Path 53" d="M129.414,293.224a3.016,3.016,0,0,1,.4.021l1.166.095,4.215.382.088.008-.011.088-.533,4.461,0,.04-.032.025-.935.746-2.305,1.835-.075.06-.06-.075-2.52-3.186-.021-.026,0-.032.441-3.264.128-.881a1.938,1.938,0,0,1,.053-.3,2.728,2.728,0,0,1-.023.33l-.091.9-.353,3.226-.016-.058,2.548,3.165-.135-.015,2.3-1.84.935-.745-.036.065c.2-1.616.391-3.13.558-4.458l.077.1-4.153-.463-1.181-.142A4.032,4.032,0,0,1,129.414,293.224Z" transform="translate(-128.788 -293.221)" fill="#455a64"/>
            </g>
          </g>
          <g id="Group_174" data-name="Group 174" transform="translate(18.69 12.557)">
            <g id="Group_173" data-name="Group 173">
              <path id="Path_54" data-name="Path 54" d="M155.165,315.968a6.543,6.543,0,0,1-.982-.478c-.6-.312-1.421-.742-2.339-1.2s-1.758-.857-2.367-1.147a6.572,6.572,0,0,1-.972-.5,5.508,5.508,0,0,1,1.029.369c.624.257,1.476.638,2.4,1.1s1.738.912,2.319,1.256A5.435,5.435,0,0,1,155.165,315.968Z" transform="translate(-148.504 -312.642)" fill="#455a64"/>
            </g>
          </g>
          <g id="Group_176" data-name="Group 176" transform="translate(21.353 13.891)">
            <g id="Group_175" data-name="Group 175">
              <path id="Path_55" data-name="Path 55" d="M159.487,319.944a2.24,2.24,0,0,1-.739-.278,6.321,6.321,0,0,1-2.688-2.648,2.233,2.233,0,0,1-.29-.735,8.5,8.5,0,0,0,3.717,3.661Z" transform="translate(-155.767 -316.282)" fill="#455a64"/>
            </g>
          </g>
          <g id="Group_178" data-name="Group 178" transform="translate(23.506 37.431)">
            <g id="Group_177" data-name="Group 177">
              <path id="Path_56" data-name="Path 56" d="M169.328,380.5a1.176,1.176,0,0,1-.1.36,4.856,4.856,0,0,1-.452.91,5.5,5.5,0,0,1-5.842,2.465,4.839,4.839,0,0,1-.967-.311,1.174,1.174,0,0,1-.326-.18,13.654,13.654,0,0,0,1.32.354,5.637,5.637,0,0,0,5.7-2.4C169.135,381,169.292,380.487,169.328,380.5Z" transform="translate(-161.642 -380.501)" fill="#455a64"/>
            </g>
          </g>
          <g id="Group_180" data-name="Group 180" transform="translate(23.723 36.84)">
            <g id="Group_179" data-name="Group 179">
              <path id="Path_57" data-name="Path 57" d="M168.278,378.9a2.671,2.671,0,0,1-.828.365,8.129,8.129,0,0,1-2.156.356,11.418,11.418,0,0,1-2.178-.128,3.418,3.418,0,0,1-.88-.2c.01-.068,1.368.2,3.051.133a10.3,10.3,0,0,0,2.126-.292A8.727,8.727,0,0,1,168.278,378.9Z" transform="translate(-162.235 -378.891)" fill="#455a64"/>
            </g>
          </g>
          <g id="Group_182" data-name="Group 182" transform="translate(7.319 37.252)">
            <g id="Group_181" data-name="Group 181">
              <path id="Path_58" data-name="Path 58" d="M123.813,380.016a3.473,3.473,0,0,1-.754.683,8.759,8.759,0,0,1-4.561,1.7,3.463,3.463,0,0,1-1.017-.023,10.04,10.04,0,0,1,1-.116,10.32,10.32,0,0,0,4.494-1.673C123.494,380.24,123.791,379.992,123.813,380.016Z" transform="translate(-117.481 -380.014)" fill="#455a64"/>
            </g>
          </g>
          <g id="Group_184" data-name="Group 184" transform="translate(7.826 36.849)">
            <g id="Group_183" data-name="Group 183">
              <path id="Path_59" data-name="Path 59" d="M122.789,379.236a6.2,6.2,0,0,1-3.924-.313c.018-.058.869.2,1.953.278S122.78,379.177,122.789,379.236Z" transform="translate(-118.864 -378.915)" fill="#455a64"/>
            </g>
          </g>
          <g id="Group_186" data-name="Group 186" transform="translate(13.278 13.842)">
            <g id="Group_185" data-name="Group 185">
              <path id="Path_60" data-name="Path 60" d="M140.857,316.153a4.313,4.313,0,0,1-.975.441,13.595,13.595,0,0,1-5.08.813,4.311,4.311,0,0,1-1.064-.115,8.465,8.465,0,0,1,1.065-.025,17.607,17.607,0,0,0,5.034-.806A8.374,8.374,0,0,1,140.857,316.153Z" transform="translate(-133.739 -316.149)" fill="#455a64"/>
            </g>
          </g>
          <g id="Group_201" data-name="Group 201" transform="translate(19.705 2.769)">
            <g id="Group_188" data-name="Group 188" transform="translate(0.006 8.856)">
              <g id="Group_187" data-name="Group 187">
                <path id="Path_61" data-name="Path 61" d="M151.382,310.1c.055,0,.1.169.1.379s-.039.382-.094.382-.1-.169-.1-.379S151.327,310.1,151.382,310.1Z" transform="translate(-151.288 -310.1)" fill="#455a64"/>
              </g>
            </g>
            <g id="Group_190" data-name="Group 190" transform="translate(0 7.332)">
              <g id="Group_189" data-name="Group 189">
                <path id="Path_62" data-name="Path 62" d="M151.373,305.942c.055,0,.1.172.1.382s-.047.38-.1.38-.1-.171-.1-.382S151.319,305.941,151.373,305.942Z" transform="translate(-151.272 -305.942)" fill="#455a64"/>
              </g>
            </g>
            <g id="Group_192" data-name="Group 192" transform="translate(0.024 5.808)">
              <g id="Group_191" data-name="Group 191">
                <path id="Path_63" data-name="Path 63" d="M151.446,301.785c.055,0,.095.173.09.383s-.054.379-.109.378-.095-.173-.089-.383S151.391,301.784,151.446,301.785Z" transform="translate(-151.337 -301.785)" fill="#455a64"/>
              </g>
            </g>
            <g id="Group_194" data-name="Group 194" transform="translate(0.076 4.285)">
              <g id="Group_193" data-name="Group 193">
                <path id="Path_64" data-name="Path 64" d="M151.6,297.631c.055,0,.091.175.082.385s-.061.379-.116.376-.091-.174-.082-.385S151.543,297.628,151.6,297.631Z" transform="translate(-151.48 -297.631)" fill="#455a64"/>
              </g>
            </g>
            <g id="Group_196" data-name="Group 196" transform="translate(0.158 2.764)">
              <g id="Group_195" data-name="Group 195">
                <path id="Path_65" data-name="Path 65" d="M151.829,293.48c.055,0,.088.177.075.387s-.069.377-.124.374-.088-.176-.075-.387S151.774,293.476,151.829,293.48Z" transform="translate(-151.702 -293.48)" fill="#455a64"/>
              </g>
            </g>
            <g id="Group_198" data-name="Group 198" transform="translate(0.268 1.245)">
              <g id="Group_197" data-name="Group 197">
                <path id="Path_66" data-name="Path 66" d="M152.14,289.336c.055,0,.085.179.067.388s-.076.376-.131.372-.084-.178-.067-.388S152.085,289.331,152.14,289.336Z" transform="translate(-152.004 -289.336)" fill="#455a64"/>
              </g>
            </g>
            <g id="Group_200" data-name="Group 200" transform="translate(0.398)">
              <g id="Group_199" data-name="Group 199">
                <path id="Path_67" data-name="Path 67" d="M152.484,285.941c.055.006.088.119.074.253s-.069.238-.123.233-.088-.118-.074-.253S152.429,285.935,152.484,285.941Z" transform="translate(-152.357 -285.94)" fill="#455a64"/>
              </g>
            </g>
          </g>
          <g id="Group_276" data-name="Group 276" transform="translate(7.778 14.634)">
            <g id="Group_203" data-name="Group 203" transform="translate(0 53.794)">
              <g id="Group_202" data-name="Group 202">
                <path id="Path_68" data-name="Path 68" d="M118.931,465.063c.054.011.064.187.023.393s-.118.365-.172.354-.064-.187-.022-.393S118.877,465.052,118.931,465.063Z" transform="translate(-118.734 -465.063)" fill="#455a64"/>
              </g>
            </g>
            <g id="Group_205" data-name="Group 205" transform="translate(0.299 52.3)">
              <g id="Group_204" data-name="Group 204">
                <path id="Path_69" data-name="Path 69" d="M119.747,460.987c.054.011.064.187.022.393s-.118.365-.172.354-.064-.187-.023-.393S119.693,460.976,119.747,460.987Z" transform="translate(-119.549 -460.986)" fill="#455a64"/>
              </g>
            </g>
            <g id="Group_207" data-name="Group 207" transform="translate(0.598 50.805)">
              <g id="Group_206" data-name="Group 206">
                <path id="Path_70" data-name="Path 70" d="M120.562,456.91c.054.011.064.187.023.393s-.118.365-.172.354-.064-.187-.022-.393S120.508,456.9,120.562,456.91Z" transform="translate(-120.365 -456.91)" fill="#455a64"/>
              </g>
            </g>
            <g id="Group_209" data-name="Group 209" transform="translate(0.897 49.311)">
              <g id="Group_208" data-name="Group 208">
                <path id="Path_71" data-name="Path 71" d="M121.378,452.834c.054.011.064.187.022.393s-.118.365-.172.354-.064-.187-.023-.393S121.324,452.823,121.378,452.834Z" transform="translate(-121.18 -452.834)" fill="#455a64"/>
              </g>
            </g>
            <g id="Group_211" data-name="Group 211" transform="translate(1.196 47.817)">
              <g id="Group_210" data-name="Group 210">
                <path id="Path_72" data-name="Path 72" d="M122.193,448.757c.054.011.064.187.023.393s-.118.365-.172.354-.064-.187-.022-.393S122.139,448.746,122.193,448.757Z" transform="translate(-121.996 -448.757)" fill="#455a64"/>
              </g>
            </g>
            <g id="Group_213" data-name="Group 213" transform="translate(1.495 46.322)">
              <g id="Group_212" data-name="Group 212">
                <path id="Path_73" data-name="Path 73" d="M123.009,444.681c.054.011.064.187.022.393s-.118.365-.172.354-.064-.187-.023-.393S122.955,444.67,123.009,444.681Z" transform="translate(-122.811 -444.681)" fill="#455a64"/>
              </g>
            </g>
            <g id="Group_215" data-name="Group 215" transform="translate(1.794 44.828)">
              <g id="Group_214" data-name="Group 214">
                <path id="Path_74" data-name="Path 74" d="M123.824,440.6c.054.011.064.187.023.393s-.118.365-.172.354-.064-.187-.022-.393S123.77,440.594,123.824,440.6Z" transform="translate(-123.627 -440.604)" fill="#455a64"/>
              </g>
            </g>
            <g id="Group_217" data-name="Group 217" transform="translate(2.092 43.334)">
              <g id="Group_216" data-name="Group 216">
                <path id="Path_75" data-name="Path 75" d="M124.64,436.528c.054.011.064.187.022.393s-.118.365-.172.354-.064-.187-.023-.393S124.586,436.517,124.64,436.528Z" transform="translate(-124.442 -436.527)" fill="#455a64"/>
              </g>
            </g>
            <g id="Group_219" data-name="Group 219" transform="translate(2.391 41.84)">
              <g id="Group_218" data-name="Group 218">
                <path id="Path_76" data-name="Path 76" d="M125.455,432.451c.054.011.064.187.023.393s-.118.365-.172.354-.064-.187-.022-.393S125.4,432.441,125.455,432.451Z" transform="translate(-125.258 -432.451)" fill="#455a64"/>
              </g>
            </g>
            <g id="Group_221" data-name="Group 221" transform="translate(2.69 40.345)">
              <g id="Group_220" data-name="Group 220">
                <path id="Path_77" data-name="Path 77" d="M126.271,428.375c.054.011.064.187.022.393s-.118.365-.172.354-.064-.187-.022-.393S126.217,428.364,126.271,428.375Z" transform="translate(-126.073 -428.375)" fill="#455a64"/>
              </g>
            </g>
            <g id="Group_223" data-name="Group 223" transform="translate(2.989 38.851)">
              <g id="Group_222" data-name="Group 222">
                <path id="Path_78" data-name="Path 78" d="M127.086,424.3c.054.011.064.187.023.393s-.118.365-.172.354-.064-.187-.022-.393S127.032,424.288,127.086,424.3Z" transform="translate(-126.889 -424.298)" fill="#455a64"/>
              </g>
            </g>
            <g id="Group_225" data-name="Group 225" transform="translate(3.288 37.357)">
              <g id="Group_224" data-name="Group 224">
                <path id="Path_79" data-name="Path 79" d="M127.9,420.221c.054.011.064.187.022.393s-.118.365-.172.354-.064-.187-.023-.393S127.848,420.21,127.9,420.221Z" transform="translate(-127.704 -420.221)" fill="#455a64"/>
              </g>
            </g>
            <g id="Group_227" data-name="Group 227" transform="translate(3.587 35.862)">
              <g id="Group_226" data-name="Group 226">
                <path id="Path_80" data-name="Path 80" d="M128.717,416.145c.054.011.064.187.023.393s-.118.365-.172.354-.064-.187-.022-.393S128.663,416.135,128.717,416.145Z" transform="translate(-128.52 -416.145)" fill="#455a64"/>
              </g>
            </g>
            <g id="Group_229" data-name="Group 229" transform="translate(3.886 34.368)">
              <g id="Group_228" data-name="Group 228">
                <path id="Path_81" data-name="Path 81" d="M129.533,412.068c.054.011.064.187.022.393s-.118.365-.172.354-.064-.187-.023-.393S129.479,412.057,129.533,412.068Z" transform="translate(-129.335 -412.068)" fill="#455a64"/>
              </g>
            </g>
            <g id="Group_231" data-name="Group 231" transform="translate(4.185 32.874)">
              <g id="Group_230" data-name="Group 230">
                <path id="Path_82" data-name="Path 82" d="M130.348,407.992c.054.011.064.187.023.393s-.118.365-.172.354-.064-.187-.022-.393S130.294,407.981,130.348,407.992Z" transform="translate(-130.151 -407.992)" fill="#455a64"/>
              </g>
            </g>
            <g id="Group_233" data-name="Group 233" transform="translate(4.484 31.379)">
              <g id="Group_232" data-name="Group 232">
                <path id="Path_83" data-name="Path 83" d="M131.164,403.915c.054.011.064.187.022.393s-.118.365-.172.354-.064-.187-.023-.393S131.11,403.9,131.164,403.915Z" transform="translate(-130.966 -403.915)" fill="#455a64"/>
              </g>
            </g>
            <g id="Group_235" data-name="Group 235" transform="translate(4.783 29.885)">
              <g id="Group_234" data-name="Group 234">
                <path id="Path_84" data-name="Path 84" d="M131.979,399.839c.054.011.064.187.023.393s-.118.365-.172.354-.064-.187-.022-.393S131.925,399.828,131.979,399.839Z" transform="translate(-131.782 -399.839)" fill="#455a64"/>
              </g>
            </g>
            <g id="Group_237" data-name="Group 237" transform="translate(5.082 28.391)">
              <g id="Group_236" data-name="Group 236">
                <path id="Path_85" data-name="Path 85" d="M132.795,395.763c.054.011.064.187.022.393s-.118.365-.172.354-.064-.187-.023-.393S132.741,395.752,132.795,395.763Z" transform="translate(-132.597 -395.763)" fill="#455a64"/>
              </g>
            </g>
            <g id="Group_239" data-name="Group 239" transform="translate(5.381 26.897)">
              <g id="Group_238" data-name="Group 238">
                <path id="Path_86" data-name="Path 86" d="M133.61,391.686c.054.011.064.187.023.393s-.118.365-.172.354-.064-.187-.022-.393S133.556,391.675,133.61,391.686Z" transform="translate(-133.413 -391.686)" fill="#455a64"/>
              </g>
            </g>
            <g id="Group_241" data-name="Group 241" transform="translate(5.68 25.402)">
              <g id="Group_240" data-name="Group 240">
                <path id="Path_87" data-name="Path 87" d="M134.426,387.609c.054.011.064.187.022.393s-.118.365-.172.354-.064-.187-.023-.393S134.372,387.6,134.426,387.609Z" transform="translate(-134.228 -387.609)" fill="#455a64"/>
              </g>
            </g>
            <g id="Group_243" data-name="Group 243" transform="translate(5.979 23.908)">
              <g id="Group_242" data-name="Group 242">
                <path id="Path_88" data-name="Path 88" d="M135.241,383.533c.054.011.064.187.023.393s-.118.365-.172.354-.064-.187-.022-.393S135.187,383.523,135.241,383.533Z" transform="translate(-135.044 -383.533)" fill="#455a64"/>
              </g>
            </g>
            <g id="Group_245" data-name="Group 245" transform="translate(6.277 22.414)">
              <g id="Group_244" data-name="Group 244">
                <path id="Path_89" data-name="Path 89" d="M136.057,379.456c.054.011.064.187.022.393s-.118.365-.172.354-.064-.187-.023-.393S136,379.445,136.057,379.456Z" transform="translate(-135.859 -379.456)" fill="#455a64"/>
              </g>
            </g>
            <g id="Group_247" data-name="Group 247" transform="translate(6.576 20.92)">
              <g id="Group_246" data-name="Group 246">
                <path id="Path_90" data-name="Path 90" d="M136.872,375.38c.054.011.064.187.023.393s-.118.365-.172.354-.064-.187-.022-.393S136.818,375.37,136.872,375.38Z" transform="translate(-136.675 -375.38)" fill="#455a64"/>
              </g>
            </g>
            <g id="Group_249" data-name="Group 249" transform="translate(6.875 19.425)">
              <g id="Group_248" data-name="Group 248">
                <path id="Path_91" data-name="Path 91" d="M137.688,371.3c.053.011.064.187.022.393s-.118.365-.172.354-.064-.187-.023-.393S137.634,371.292,137.688,371.3Z" transform="translate(-137.49 -371.303)" fill="#455a64"/>
              </g>
            </g>
            <g id="Group_251" data-name="Group 251" transform="translate(7.174 17.931)">
              <g id="Group_250" data-name="Group 250">
                <path id="Path_92" data-name="Path 92" d="M138.5,367.227c.054.011.064.187.023.393s-.118.365-.172.354-.064-.187-.022-.393S138.449,367.216,138.5,367.227Z" transform="translate(-138.306 -367.227)" fill="#455a64"/>
              </g>
            </g>
            <g id="Group_253" data-name="Group 253" transform="translate(7.473 16.437)">
              <g id="Group_252" data-name="Group 252">
                <path id="Path_93" data-name="Path 93" d="M139.319,363.15c.054.011.064.187.022.393s-.118.365-.172.354-.064-.187-.023-.393S139.265,363.139,139.319,363.15Z" transform="translate(-139.121 -363.15)" fill="#455a64"/>
              </g>
            </g>
            <g id="Group_255" data-name="Group 255" transform="translate(7.772 14.943)">
              <g id="Group_254" data-name="Group 254">
                <path id="Path_94" data-name="Path 94" d="M140.134,359.074c.054.011.064.187.023.393s-.118.365-.172.354-.064-.187-.022-.393S140.08,359.063,140.134,359.074Z" transform="translate(-139.937 -359.074)" fill="#455a64"/>
              </g>
            </g>
            <g id="Group_257" data-name="Group 257" transform="translate(8.071 13.448)">
              <g id="Group_256" data-name="Group 256">
                <path id="Path_95" data-name="Path 95" d="M140.949,355c.054.011.064.187.023.393s-.118.365-.172.354-.064-.187-.023-.393S140.9,354.986,140.949,355Z" transform="translate(-140.752 -354.997)" fill="#455a64"/>
              </g>
            </g>
            <g id="Group_259" data-name="Group 259" transform="translate(8.37 11.954)">
              <g id="Group_258" data-name="Group 258">
                <path id="Path_96" data-name="Path 96" d="M141.765,350.921c.054.011.064.187.023.393s-.118.365-.172.354-.064-.187-.022-.393S141.711,350.91,141.765,350.921Z" transform="translate(-141.568 -350.921)" fill="#455a64"/>
              </g>
            </g>
            <g id="Group_261" data-name="Group 261" transform="translate(8.669 10.46)">
              <g id="Group_260" data-name="Group 260">
                <path id="Path_97" data-name="Path 97" d="M142.581,346.844c.054.011.064.187.022.393s-.118.365-.172.354-.064-.187-.023-.393S142.527,346.833,142.581,346.844Z" transform="translate(-142.383 -346.844)" fill="#455a64"/>
              </g>
            </g>
            <g id="Group_263" data-name="Group 263" transform="translate(8.968 8.966)">
              <g id="Group_262" data-name="Group 262">
                <path id="Path_98" data-name="Path 98" d="M143.4,342.768c.054.011.064.187.023.393s-.118.365-.172.354-.064-.187-.022-.393S143.342,342.757,143.4,342.768Z" transform="translate(-143.199 -342.768)" fill="#455a64"/>
              </g>
            </g>
            <g id="Group_265" data-name="Group 265" transform="translate(9.267 7.471)">
              <g id="Group_264" data-name="Group 264">
                <path id="Path_99" data-name="Path 99" d="M144.212,338.691c.054.011.064.187.022.393s-.118.365-.172.354-.064-.187-.023-.393S144.158,338.68,144.212,338.691Z" transform="translate(-144.014 -338.691)" fill="#455a64"/>
              </g>
            </g>
            <g id="Group_267" data-name="Group 267" transform="translate(9.566 5.977)">
              <g id="Group_266" data-name="Group 266">
                <path id="Path_100" data-name="Path 100" d="M145.027,334.615c.054.011.064.187.022.393s-.118.365-.172.354-.064-.187-.022-.393S144.973,334.6,145.027,334.615Z" transform="translate(-144.83 -334.615)" fill="#455a64"/>
              </g>
            </g>
            <g id="Group_269" data-name="Group 269" transform="translate(9.865 4.483)">
              <g id="Group_268" data-name="Group 268">
                <path id="Path_101" data-name="Path 101" d="M145.843,330.538c.054.011.064.187.022.393s-.118.365-.172.354-.064-.187-.023-.393S145.789,330.528,145.843,330.538Z" transform="translate(-145.645 -330.538)" fill="#455a64"/>
              </g>
            </g>
            <g id="Group_271" data-name="Group 271" transform="translate(10.164 2.989)">
              <g id="Group_270" data-name="Group 270">
                <path id="Path_102" data-name="Path 102" d="M146.658,326.462c.054.011.064.187.022.393s-.118.365-.172.354-.064-.187-.022-.393S146.6,326.451,146.658,326.462Z" transform="translate(-146.461 -326.462)" fill="#455a64"/>
              </g>
            </g>
            <g id="Group_273" data-name="Group 273" transform="translate(10.462 1.494)">
              <g id="Group_272" data-name="Group 272">
                <path id="Path_103" data-name="Path 103" d="M147.474,322.385c.054.011.064.187.022.393s-.118.365-.172.354-.064-.187-.023-.393S147.42,322.374,147.474,322.385Z" transform="translate(-147.276 -322.385)" fill="#455a64"/>
              </g>
            </g>
            <g id="Group_275" data-name="Group 275" transform="translate(10.761)">
              <g id="Group_274" data-name="Group 274">
                <path id="Path_104" data-name="Path 104" d="M148.289,318.309c.054.011.064.187.022.393s-.118.365-.172.354-.064-.187-.022-.393S148.235,318.3,148.289,318.309Z" transform="translate(-148.092 -318.309)" fill="#455a64"/>
              </g>
            </g>
          </g>
        </g>
        <g id="Group_294" data-name="Group 294" transform="translate(45.835 20.939)">
          <g id="Group_281" data-name="Group 281" transform="translate(2.781)">
            <g id="Group_278" data-name="Group 278">
              <path id="Path_105" data-name="Path 105" d="M230.144,179.3s2.536-3.8,2.6-3.836h0s2.29-3.855,3.05-3.856.486.781-.3,2.163a5.5,5.5,0,0,0-.759,1.967l1.88,1.135s1.256-.486,1.308.685a8.113,8.113,0,0,1-.216,1.59c-.076.417-.265.861-.658.7a.494.494,0,0,1-.337-.471c-.024-.692.105-.946.017-.947-.113,0-1.353,3.633-1.353,3.633Z" transform="translate(-230.144 -171.61)" fill="#ffbe9d"/>
            </g>
            <g id="Group_279" data-name="Group 279" transform="translate(5.121 4.228)">
              <path id="Path_106" data-name="Path 106" d="M244.115,183.623a3.657,3.657,0,0,1,.6-.36,1.227,1.227,0,0,1,.685-.106.612.612,0,0,1,.381.2.621.621,0,0,1,.072.577,1.824,1.824,0,0,1-.308.518" transform="translate(-244.115 -183.144)" fill="#ffbe9d"/>
            </g>
            <g id="Group_280" data-name="Group 280" transform="translate(4.263 3.488)">
              <path id="Path_107" data-name="Path 107" d="M241.775,181.578a3.5,3.5,0,0,1,.571-.339,1.169,1.169,0,0,1,.649-.1.519.519,0,0,1,.429.735,4.867,4.867,0,0,1-.584.752" transform="translate(-241.775 -181.127)" fill="#ffbe9d"/>
            </g>
          </g>
          <g id="Group_282" data-name="Group 282" transform="translate(0 5.546)">
            <path id="Path_108" data-name="Path 108" d="M226.222,186.739l-3.665,7.838,4.04,4.129,2.105-5.842s1.128.225,1.588-.523a19.555,19.555,0,0,0,1.188-3.25Z" transform="translate(-222.557 -186.739)" fill="#f5d1b7"/>
          </g>
          <g id="Group_284" data-name="Group 284" transform="translate(6.275 3.568)">
            <g id="Group_283" data-name="Group 283">
              <path id="Path_109" data-name="Path 109" d="M239.684,183.106a1.991,1.991,0,0,1,.433-1.084,1.934,1.934,0,0,1,.628-.556c.188-.1.316-.137.328-.114.035.059-.439.293-.8.788S239.745,183.132,239.684,183.106Z" transform="translate(-239.676 -181.345)" fill="#eb996e"/>
            </g>
          </g>
          <g id="Group_286" data-name="Group 286" transform="translate(8.35 5.088)">
            <g id="Group_285" data-name="Group 285">
              <path id="Path_110" data-name="Path 110" d="M247.336,185.765c-.017.026-.142-.042-.355-.079a1.242,1.242,0,0,0-.8.122,1.947,1.947,0,0,0-.595.591c-.132.183-.218.3-.243.285s.018-.15.123-.358a1.608,1.608,0,0,1,.619-.691,1.18,1.18,0,0,1,.931-.084C247.247,185.63,247.35,185.747,247.336,185.765Z" transform="translate(-245.336 -185.491)" fill="#eb996e"/>
            </g>
          </g>
          <g id="Group_288" data-name="Group 288" transform="translate(7.448 4.233)">
            <g id="Group_287" data-name="Group 287">
              <path id="Path_111" data-name="Path 111" d="M244.413,183.182a5.25,5.25,0,0,0-.861.506c-.41.363-.611.788-.667.76a1.386,1.386,0,0,1,.536-.909,1.574,1.574,0,0,1,.675-.354C244.288,183.143,244.41,183.157,244.413,183.182Z" transform="translate(-242.877 -183.158)" fill="#eb996e"/>
            </g>
          </g>
          <g id="Group_290" data-name="Group 290" transform="translate(9.33 5.949)">
            <g id="Group_289" data-name="Group 289">
              <path id="Path_112" data-name="Path 112" d="M248.565,187.839c.052-.02.148.284-.045.588s-.505.351-.51.3.2-.163.342-.4S248.51,187.848,248.565,187.839Z" transform="translate(-248.01 -187.839)" fill="#eb996e"/>
            </g>
          </g>
          <g id="Group_291" data-name="Group 291" transform="translate(2.777 4.441)">
            <path id="Path_113" data-name="Path 113" d="M230.147,186.823s-.128-2.339.437-2.868,2.185.021,2.185.021" transform="translate(-230.134 -183.725)" fill="#ffbe9d"/>
          </g>
          <g id="Group_293" data-name="Group 293" transform="translate(3.8 3.575)">
            <g id="Group_292" data-name="Group 292">
              <path id="Path_114" data-name="Path 114" d="M234.766,181.363a12.493,12.493,0,0,1-1.838,2.55,12.493,12.493,0,0,1,1.838-2.55Z" transform="translate(-232.925 -181.362)" fill="#eb996e"/>
            </g>
          </g>
        </g>
        <g id="Group_320" data-name="Group 320" transform="translate(15.489)">
          <g id="Group_300" data-name="Group 300" transform="translate(0.871 1.984)">
            <g id="Group_299" data-name="Group 299">
              <g id="Group_296" data-name="Group 296" transform="translate(2.613 2.551)">
                <g id="Group_295" data-name="Group 295">
                  <path id="Path_115" data-name="Path 115" d="M149.334,129.1l-.056,18.253,7.831.374.226-4.44s2.781.552,3.5-2.031c.459-1.65.344-14.4.344-14.4Z" transform="translate(-149.278 -126.858)" fill="#f5d1b7"/>
                </g>
              </g>
              <g id="Group_298" data-name="Group 298">
                <g id="Group_297" data-name="Group 297">
                  <path id="Path_116" data-name="Path 116" d="M157.693,123.736c-1.233.353-1.5,2.369-1.5,2.369l-1.934,4.273c-.986-.772-2.309-.728-2.56,1-.181,1.252,1.375,1.5,1.375,1.5a22.688,22.688,0,0,1-2.839,4.255,4.2,4.2,0,0,1-3.776,1.773h-1.707s-.835-2.712-2.383-9.5c-1.717-7.526,7.182-6.556,8.832-8.477C153.887,117.812,161.581,122.622,157.693,123.736Z" transform="translate(-142.149 -119.899)" fill="#353535"/>
                </g>
              </g>
            </g>
          </g>
          <g id="Group_301" data-name="Group 301">
            <path id="Path_117" data-name="Path 117" d="M141.025,126.7c-1.442-.969-1.573-3.68-.731-5.306a5.224,5.224,0,0,1,4.443-2.763,2.119,2.119,0,0,0,.726-.081,2.007,2.007,0,0,0,.779-.74c1.289-1.676,2.556-3.323,4.959-3.322a2.733,2.733,0,0,1,1.511.375,2.375,2.375,0,0,1,.908,1.2,5.135,5.135,0,0,1,1.405-.505,1.735,1.735,0,0,1,1.41.344,1.062,1.062,0,0,1,.222,1.351,1.709,1.709,0,0,1,1.7,1.421c.128.8-1.021,1.365-1.14,1.427a1.587,1.587,0,0,1-.873,2.11,1.8,1.8,0,0,1-1.482-.111" transform="translate(-139.772 -114.487)" fill="#353535"/>
          </g>
          <g id="Group_303" data-name="Group 303" transform="translate(6.365 13.967)">
            <g id="Group_302" data-name="Group 302">
              <path id="Path_118" data-name="Path 118" d="M157.741,152.591a3.69,3.69,0,0,1-.6,2.658c-.052-.026.2-.585.36-1.315S157.683,152.592,157.741,152.591Z" transform="translate(-157.136 -152.591)" fill="#455a64"/>
            </g>
          </g>
          <g id="Group_305" data-name="Group 305" transform="translate(7.419 13.072)">
            <g id="Group_304" data-name="Group 304">
              <path id="Path_119" data-name="Path 119" d="M160.511,150.148a5.15,5.15,0,0,1-.486,2.605,35.18,35.18,0,0,1,.486-2.605Z" transform="translate(-160.013 -150.148)" fill="#455a64"/>
            </g>
          </g>
          <g id="Group_307" data-name="Group 307" transform="translate(8.628 10.057)">
            <g id="Group_306" data-name="Group 306">
              <path id="Path_120" data-name="Path 120" d="M165.312,141.926c.019.026-.2.188-.485.518a5.007,5.007,0,0,0-.844,1.457,12.251,12.251,0,0,0-.468,1.641,2.736,2.736,0,0,1-.194.69,2.473,2.473,0,0,1,.056-.716,8.038,8.038,0,0,1,.421-1.687,4.249,4.249,0,0,1,.926-1.481A1.488,1.488,0,0,1,165.312,141.926Z" transform="translate(-163.31 -141.924)" fill="#455a64"/>
            </g>
          </g>
          <g id="Group_309" data-name="Group 309" transform="translate(10.912 8.008)">
            <g id="Group_308" data-name="Group 308">
              <path id="Path_121" data-name="Path 121" d="M170.355,136.334a1.014,1.014,0,0,1,.152.494,3.287,3.287,0,0,1-.6,2.377c-.193.257-.35.38-.367.364a4.7,4.7,0,0,0,.811-3.235Z" transform="translate(-169.541 -136.334)" fill="#455a64"/>
            </g>
          </g>
          <g id="Group_311" data-name="Group 311" transform="translate(1.403 12.009)">
            <g id="Group_310" data-name="Group 310">
              <path id="Path_122" data-name="Path 122" d="M144.577,147.807c-.027.048-.266-.035-.536-.185s-.466-.311-.439-.359.266.035.536.185S144.6,147.759,144.577,147.807Z" transform="translate(-143.6 -147.249)" fill="#455a64"/>
            </g>
          </g>
          <g id="Group_313" data-name="Group 313" transform="translate(5.337 10.618)">
            <g id="Group_312" data-name="Group 312">
              <path id="Path_123" data-name="Path 123" d="M155.159,143.453c.052.008.019.394-.224.794s-.568.61-.6.567.209-.3.429-.67S155.1,143.441,155.159,143.453Z" transform="translate(-154.333 -143.453)" fill="#455a64"/>
            </g>
          </g>
          <g id="Group_315" data-name="Group 315" transform="translate(6.237 9.993)">
            <g id="Group_314" data-name="Group 314">
              <path id="Path_124" data-name="Path 124" d="M157.876,141.749a1.573,1.573,0,0,1-.349.949c-.314.476-.709.732-.739.69s.28-.352.574-.8A8.028,8.028,0,0,1,157.876,141.749Z" transform="translate(-156.786 -141.749)" fill="#455a64"/>
            </g>
          </g>
          <g id="Group_317" data-name="Group 317" transform="translate(2.67 1.591)">
            <g id="Group_316" data-name="Group 316">
              <path id="Path_125" data-name="Path 125" d="M157.5,119.586c-.014.016-.147-.111-.429-.272a2.89,2.89,0,0,0-1.312-.339,3.519,3.519,0,0,0-1.925.517,4.773,4.773,0,0,0-1.64,1.827,8.211,8.211,0,0,0-.665,1.711l-.032.115-.105-.055a3.9,3.9,0,0,0-1.747-.447,4.134,4.134,0,0,0-1.422.215,6.039,6.039,0,0,0-1.161.581,1.185,1.185,0,0,1,.262-.232,3.62,3.62,0,0,1,.859-.461,4.065,4.065,0,0,1,1.464-.265,3.98,3.98,0,0,1,1.835.442l-.137.059a8.065,8.065,0,0,1,.675-1.757,4.839,4.839,0,0,1,1.72-1.889,3.575,3.575,0,0,1,2.026-.5,2.787,2.787,0,0,1,1.346.413,2.033,2.033,0,0,1,.3.239C157.47,119.547,157.5,119.581,157.5,119.586Z" transform="translate(-147.057 -118.829)" fill="#455a64"/>
            </g>
          </g>
          <g id="Group_319" data-name="Group 319" transform="translate(7.852 3.085)">
            <g id="Group_318" data-name="Group 318">
              <path id="Path_126" data-name="Path 126" d="M170.569,123.16c-.014,0,.218-.059.449.2a.779.779,0,0,1,.18.571.889.889,0,0,1-.455.65,1.291,1.291,0,0,1-.952.131,2.754,2.754,0,0,1-.981-.476,9.684,9.684,0,0,0-.96-.658,4,4,0,0,0-1.157-.407,4.891,4.891,0,0,0-2.361.162,6.475,6.475,0,0,0-1.745.887,17.846,17.846,0,0,0-1.393,1.179,1.975,1.975,0,0,1,.31-.386,7.523,7.523,0,0,1,1-.906,6.267,6.267,0,0,1,1.771-.948,4.953,4.953,0,0,1,2.454-.183,4.1,4.1,0,0,1,1.214.431,9.119,9.119,0,0,1,.972.679,2.645,2.645,0,0,0,.912.464,1.153,1.153,0,0,0,.845-.092.776.776,0,0,0,.415-.542.711.711,0,0,0-.131-.51A.688.688,0,0,0,170.569,123.16Z" transform="translate(-161.193 -122.903)" fill="#455a64"/>
            </g>
          </g>
        </g>
        <g id="Group_378" data-name="Group 378" transform="translate(1.143 23.234)">
          <g id="Group_349" data-name="Group 349">
            <g id="Group_322" data-name="Group 322" transform="translate(0.085 3.711)">
              <g id="Group_321" data-name="Group 321">
                <path id="Path_127" data-name="Path 127" d="M110.33,188l-6.994,11.746c-.782,1.37-1.507,2.831-2.2,4.345a4.853,4.853,0,0,0,.738,4.548l-.2-.284a4.085,4.085,0,0,0,3.177,1.517h.181a4.085,4.085,0,0,0,3.746-2.455L111.03,204Z" transform="translate(-100.866 -187.998)" fill="#fe9a48"/>
              </g>
            </g>
            <g id="Group_324" data-name="Group 324" transform="translate(8.283)">
              <g id="Group_323" data-name="Group 323">
                <path id="Path_128" data-name="Path 128" d="M145.6,179.34a12.844,12.844,0,0,0-5.753-1.235,65.982,65.982,0,0,0-8.213-.128s-7.231.535-7.734,5.491l.987,23.276-1.656,9.862,23.175.7-.166-11.635c.286-6.054-.324-14.626-.324-14.626.356-3.254,2.137-4.719,2.39-6.836A5.206,5.206,0,0,0,145.6,179.34Z" transform="translate(-123.232 -177.873)" fill="#fe9a48"/>
              </g>
            </g>
            <g id="Group_327" data-name="Group 327" transform="translate(13.15 29.205)">
              <g id="Group_326" data-name="Group 326">
                <g id="Group_325" data-name="Group 325">
                  <path id="Path_129" data-name="Path 129" d="M147.478,257.548a1.87,1.87,0,0,1-.341.323,7.476,7.476,0,0,1-1.056.725,8.444,8.444,0,0,1-8.14.144,7.513,7.513,0,0,1-1.081-.687,1.868,1.868,0,0,1-.352-.31c.023-.032.536.4,1.5.872a8.738,8.738,0,0,0,8.009-.142C146.957,257.97,147.455,257.517,147.478,257.548Z" transform="translate(-136.507 -257.547)" fill="#263238"/>
                </g>
              </g>
            </g>
            <g id="Group_330" data-name="Group 330" transform="translate(8.903 5.862)">
              <g id="Group_329" data-name="Group 329">
                <g id="Group_328" data-name="Group 328">
                  <path id="Path_130" data-name="Path 130" d="M124.936,193.864a1,1,0,0,1,.027.227c.01.17.023.386.039.65.027.592.065,1.4.111,2.393.086,2.045.2,4.825.331,7.9s.265,5.851.358,7.9c.05.99.092,1.8.122,2.392.011.265.021.481.027.651a.963.963,0,0,1,0,.228.993.993,0,0,1-.036-.225c-.017-.17-.038-.384-.065-.648-.055-.563-.114-1.38-.185-2.389-.137-2.019-.286-4.81-.416-7.9s-.221-5.877-.272-7.9c-.02-.992-.036-1.8-.048-2.4,0-.265,0-.481,0-.652A.969.969,0,0,1,124.936,193.864Z" transform="translate(-124.923 -193.864)" fill="#263238"/>
                </g>
              </g>
            </g>
            <g id="Group_333" data-name="Group 333" transform="translate(0 7.094)">
              <g id="Group_332" data-name="Group 332">
                <g id="Group_331" data-name="Group 331">
                  <path id="Path_131" data-name="Path 131" d="M108.1,197.226a.734.734,0,0,1-.08.181l-.263.5c-.234.432-.582,1.052-1.027,1.809-.88,1.52-2.2,3.557-3.54,5.872-.668,1.156-1.235,2.3-1.725,3.347a6.147,6.147,0,0,0-.674,2.937,4.712,4.712,0,0,0,.537,1.965c.229.43.419.629.4.643s-.053-.044-.14-.14a3.34,3.34,0,0,1-.33-.464,4.56,4.56,0,0,1-.61-1.995,6.169,6.169,0,0,1,.647-3.02c.486-1.059,1.048-2.207,1.72-3.371,1.343-2.324,2.682-4.346,3.592-5.846l1.081-1.775.3-.482A.759.759,0,0,1,108.1,197.226Z" transform="translate(-100.634 -197.226)" fill="#263238"/>
                </g>
              </g>
            </g>
            <g id="Group_345" data-name="Group 345" transform="translate(26.574 0.765)">
              <g id="Group_335" data-name="Group 335" transform="translate(1.572)">
                <g id="Group_334" data-name="Group 334">
                  <path id="Path_132" data-name="Path 132" d="M199.366,192.679,194,189.171l-3.384,5.863s-4.693-6.522-6.824-10.344c-1.962-3.517-4.5-4.464-5.724-4.719a.544.544,0,0,0-.65.593l1.85,12.682a108.1,108.1,0,0,0,6.267,9.1c3.61,4.713,8.929,1.7,10.39-1.6C197.086,198.123,198.891,194.145,199.366,192.679Z" transform="translate(-177.417 -179.96)" fill="#fe9a48"/>
                </g>
              </g>
              <g id="Group_338" data-name="Group 338" transform="translate(14.825 14.95)">
                <g id="Group_337" data-name="Group 337">
                  <g id="Group_336" data-name="Group 336">
                    <path id="Path_133" data-name="Path 133" d="M215.063,226.162a3.784,3.784,0,0,1-.1-.837,16.07,16.07,0,0,0-.259-2,6.611,6.611,0,0,0-.685-1.872c-.252-.446-.466-.688-.442-.71a1.994,1.994,0,0,1,.562.637,5.6,5.6,0,0,1,.759,1.9,10.712,10.712,0,0,1,.2,2.031A3.387,3.387,0,0,1,215.063,226.162Z" transform="translate(-213.573 -220.746)" fill="#263238"/>
                  </g>
                </g>
              </g>
              <g id="Group_341" data-name="Group 341" transform="translate(14.73 14.699)">
                <g id="Group_340" data-name="Group 340">
                  <g id="Group_339" data-name="Group 339">
                    <path id="Path_134" data-name="Path 134" d="M216.468,223.107c-.032,0-.057-.272-.19-.687a3.787,3.787,0,0,0-.858-1.438,2.247,2.247,0,0,0-1.426-.78,2.016,2.016,0,0,0-.68.119c-.02-.011.2-.244.681-.26a2.206,2.206,0,0,1,1.567.783,3.4,3.4,0,0,1,.85,1.537A1.526,1.526,0,0,1,216.468,223.107Z" transform="translate(-213.313 -220.06)" fill="#263238"/>
                  </g>
                </g>
              </g>
              <g id="Group_344" data-name="Group 344" transform="translate(0 1.578)">
                <g id="Group_343" data-name="Group 343">
                  <g id="Group_342" data-name="Group 342">
                    <path id="Path_135" data-name="Path 135" d="M175,184.264a.733.733,0,0,1-.128.149l-.165.169-.205.247a5.236,5.236,0,0,0-.928,1.8,7.05,7.05,0,0,0-.2,2.994,6.625,6.625,0,0,0,.461,1.715,18.693,18.693,0,0,0,.867,1.722c1.313,2.3,2.664,4.3,3.642,5.739l1.177,1.692a6.366,6.366,0,0,1,.426.626.745.745,0,0,1-.135-.143c-.083-.1-.2-.244-.353-.437-.3-.383-.723-.949-1.23-1.658a68.125,68.125,0,0,1-3.7-5.723,18.077,18.077,0,0,1-.873-1.744,6.684,6.684,0,0,1-.463-1.766,7.022,7.022,0,0,1,.251-3.06,5.022,5.022,0,0,1,1-1.811l.222-.239.18-.157A.734.734,0,0,1,175,184.264Z" transform="translate(-173.129 -184.264)" fill="#263238"/>
                  </g>
                </g>
              </g>
            </g>
            <g id="Group_348" data-name="Group 348" transform="translate(11.274 36.037)">
              <g id="Group_347" data-name="Group 347">
                <g id="Group_346" data-name="Group 346">
                  <path id="Path_136" data-name="Path 136" d="M148.578,276.188a.6.6,0,0,1-.163.071l-.482.167c-.21.072-.467.155-.772.236s-.647.188-1.034.271a26.411,26.411,0,0,1-2.737.5,27.056,27.056,0,0,1-6.805.019,26.34,26.34,0,0,1-2.74-.487c-.388-.081-.732-.184-1.036-.265s-.563-.161-.773-.232l-.482-.164a.09.09,0,1,1,.012-.038l.493.128c.213.059.473.13.779.2s.65.163,1.038.235c.77.167,1.7.319,2.732.442a28.965,28.965,0,0,0,6.761-.019c1.033-.129,1.959-.287,2.729-.458.387-.074.731-.169,1.036-.241s.566-.143.778-.2l.492-.13A.612.612,0,0,1,148.578,276.188Z" transform="translate(-131.39 -276.186)" fill="#263238"/>
                </g>
              </g>
            </g>
          </g>
          <g id="Group_350" data-name="Group 350" transform="translate(8.498 7.959)">
            <path id="Path_137" data-name="Path 137" d="M123.817,214l1.047-1.624-.546-12.791Z" transform="translate(-123.817 -199.586)" fill="#ff7300"/>
          </g>
          <g id="Group_351" data-name="Group 351" transform="translate(26.574 7.094)">
            <path id="Path_138" data-name="Path 138" d="M173.129,197.226s.034,4.661,1.111,6.507a65.139,65.139,0,0,0,3.589,5.6c-.008-.238-.144-3.29-.144-3.29S173.151,199.835,173.129,197.226Z" transform="translate(-173.129 -197.226)" fill="#ff7300"/>
          </g>
          <g id="Group_353" data-name="Group 353" transform="translate(1.164 17.658)">
            <g id="Group_352" data-name="Group 352">
              <path id="Path_139" data-name="Path 139" d="M110.217,231.15a.788.788,0,0,1-.335.1,2.013,2.013,0,0,1-.944-.122,3.186,3.186,0,0,1-1.172-.786,6.8,6.8,0,0,1-.978-1.413,14.449,14.449,0,0,0-.864-1.45,4.066,4.066,0,0,0-.956-.96,2.974,2.974,0,0,0-1.161-.457.82.82,0,0,1,.348,0,2.319,2.319,0,0,1,.887.342,3.94,3.94,0,0,1,1.023.968,12.629,12.629,0,0,1,.889,1.461,7.152,7.152,0,0,0,.939,1.385,3.211,3.211,0,0,0,1.093.781A2.419,2.419,0,0,0,110.217,231.15Z" transform="translate(-103.809 -226.045)" fill="#fff"/>
            </g>
          </g>
          <g id="Group_355" data-name="Group 355" transform="translate(5.074 11.737)">
            <g id="Group_354" data-name="Group 354">
              <path id="Path_140" data-name="Path 140" d="M118.393,212.886c-.033.009-.113-.277-.336-.689a4.33,4.33,0,0,0-2.825-2.134c-.457-.1-.754-.1-.754-.135a1.812,1.812,0,0,1,.78,0,3.961,3.961,0,0,1,2.921,2.207A1.821,1.821,0,0,1,118.393,212.886Z" transform="translate(-114.477 -209.893)" fill="#fff"/>
            </g>
          </g>
          <g id="Group_357" data-name="Group 357" transform="translate(9.46 7.669)">
            <g id="Group_356" data-name="Group 356">
              <path id="Path_141" data-name="Path 141" d="M143.641,198.992c0,.019-.251-.048-.707-.085a6.074,6.074,0,0,0-1.916.174,11.322,11.322,0,0,0-2.658,1.063c-.96.5-1.977,1.14-3.128,1.666a9.48,9.48,0,0,1-6.334.607,8.566,8.566,0,0,1-1.836-.675,5.219,5.219,0,0,1-.466-.257.691.691,0,0,1-.154-.1c.009-.016.232.108.651.293a9.562,9.562,0,0,0,1.836.611,9.935,9.935,0,0,0,2.848.225,9.634,9.634,0,0,0,3.375-.875c1.135-.519,2.154-1.151,3.126-1.648a10.974,10.974,0,0,1,2.709-1.038,5.72,5.72,0,0,1,1.953-.117,3.617,3.617,0,0,1,.523.1A.674.674,0,0,1,143.641,198.992Z" transform="translate(-126.443 -198.795)" fill="#fff"/>
            </g>
          </g>
          <g id="Group_359" data-name="Group 359" transform="translate(9.821 18.127)">
            <g id="Group_358" data-name="Group 358">
              <path id="Path_142" data-name="Path 142" d="M148.77,229.745a.98.98,0,0,1-.212.071,6.124,6.124,0,0,1-.621.154,10.107,10.107,0,0,1-2.344.186,17.543,17.543,0,0,1-3.453-.486c-1.28-.293-2.66-.713-4.108-1.139a27.825,27.825,0,0,0-4.14-.92,12.929,12.929,0,0,0-3.446-.027,8.506,8.506,0,0,0-2.24.616c-.5.222-.769.378-.779.36a.95.95,0,0,1,.186-.122,5.147,5.147,0,0,1,.562-.305,7.959,7.959,0,0,1,2.25-.682,12.624,12.624,0,0,1,3.488-.014,26.79,26.79,0,0,1,4.172.911c1.45.427,2.824.85,4.095,1.151a18.305,18.305,0,0,0,3.418.522,11.058,11.058,0,0,0,2.326-.124C148.468,229.8,148.765,229.727,148.77,229.745Z" transform="translate(-127.427 -227.324)" fill="#fff"/>
            </g>
          </g>
          <g id="Group_361" data-name="Group 361" transform="translate(9.924 26.771)">
            <g id="Group_360" data-name="Group 360">
              <path id="Path_143" data-name="Path 143" d="M149.077,251.935a10.112,10.112,0,0,0-3.049-.821,14.948,14.948,0,0,0-3.432.119c-1.286.174-2.686.469-4.164.747s-2.894.519-4.2.633a15.98,15.98,0,0,1-3.469-.023,9.907,9.907,0,0,1-2.274-.545,6.21,6.21,0,0,1-.586-.249.958.958,0,0,1-.2-.1c.008-.017.287.105.807.281a10.809,10.809,0,0,0,2.266.481,16.61,16.61,0,0,0,3.437-.018c1.292-.122,2.7-.369,4.178-.645s2.88-.567,4.177-.734a14.473,14.473,0,0,1,3.469-.078,8.248,8.248,0,0,1,2.268.572,5.439,5.439,0,0,1,.575.272A1.006,1.006,0,0,1,149.077,251.935Z" transform="translate(-127.709 -250.907)" fill="#fff"/>
            </g>
          </g>
          <g id="Group_363" data-name="Group 363" transform="translate(9.584 32.378)">
            <g id="Group_362" data-name="Group 362">
              <path id="Path_144" data-name="Path 144" d="M136.574,270.971a1.9,1.9,0,0,1-.366-.231c-.227-.16-.558-.386-.971-.659a28.918,28.918,0,0,0-6.932-3.372c-.47-.156-.852-.277-1.118-.356a1.874,1.874,0,0,1-.407-.146,1.87,1.87,0,0,1,.426.074c.272.058.662.159,1.14.3a23.945,23.945,0,0,1,6.968,3.389c.405.289.725.533.939.711A1.869,1.869,0,0,1,136.574,270.971Z" transform="translate(-126.78 -266.203)" fill="#fff"/>
            </g>
          </g>
          <g id="Group_365" data-name="Group 365" transform="translate(25.056 36.845)">
            <g id="Group_364" data-name="Group 364">
              <path id="Path_145" data-name="Path 145" d="M174.594,278.564a2.415,2.415,0,0,1-.77.386,5.653,5.653,0,0,1-4.091-.126,2.424,2.424,0,0,1-.745-.433c.016-.028.3.13.794.308a6.429,6.429,0,0,0,4,.124C174.284,278.675,174.58,278.535,174.594,278.564Z" transform="translate(-168.988 -278.388)" fill="#fff"/>
            </g>
          </g>
          <g id="Group_367" data-name="Group 367" transform="translate(33.18 12.822)">
            <g id="Group_366" data-name="Group 366">
              <path id="Path_146" data-name="Path 146" d="M196.655,212.852a.751.751,0,0,1-.043.326,2.174,2.174,0,0,1-.429.787,3.732,3.732,0,0,1-1.03.838,12.706,12.706,0,0,1-1.47.659,6.317,6.317,0,0,0-1.394.729,2.917,2.917,0,0,0-.829.952,2.221,2.221,0,0,0-.235,1.14.712.712,0,0,1-.072-.321,1.831,1.831,0,0,1,.185-.879,2.9,2.9,0,0,1,.842-1.031,6.011,6.011,0,0,1,1.428-.766,14.909,14.909,0,0,0,1.457-.636,3.865,3.865,0,0,0,1.014-.773A2.85,2.85,0,0,0,196.655,212.852Z" transform="translate(-191.152 -212.851)" fill="#fff"/>
            </g>
          </g>
          <g id="Group_369" data-name="Group 369" transform="translate(28.261 5.042)">
            <g id="Group_368" data-name="Group 368">
              <path id="Path_147" data-name="Path 147" d="M183.651,191.629a1.14,1.14,0,0,1-.062.332,2.9,2.9,0,0,1-.114.38,4.822,4.822,0,0,1-.188.491,7.239,7.239,0,0,1-.66,1.2,7.7,7.7,0,0,1-2.432,2.288,7.265,7.265,0,0,1-1.239.585,4.85,4.85,0,0,1-.5.158,2.953,2.953,0,0,1-.386.09,1.138,1.138,0,0,1-.336.041c-.008-.036.464-.126,1.175-.415a8.2,8.2,0,0,0,1.2-.61,8.2,8.2,0,0,0,2.38-2.238,8.222,8.222,0,0,0,.682-1.156C183.5,192.084,183.616,191.618,183.651,191.629Z" transform="translate(-177.732 -191.629)" fill="#fff"/>
            </g>
          </g>
          <g id="Group_371" data-name="Group 371" transform="translate(12.58 0.231)">
            <g id="Group_370" data-name="Group 370">
              <path id="Path_148" data-name="Path 148" d="M149.5,178.505a3.346,3.346,0,0,1-.532.239c-.346.146-.858.33-1.5.53a22.754,22.754,0,0,1-2.287.581,23.444,23.444,0,0,1-5.756.422,22.871,22.871,0,0,1-2.348-.24c-.664-.1-1.2-.211-1.56-.305a3.374,3.374,0,0,1-.561-.159,3.417,3.417,0,0,1,.576.087c.367.071.9.157,1.564.244s1.455.159,2.337.2a25.373,25.373,0,0,0,5.715-.42c.867-.167,1.641-.351,2.283-.537s1.159-.346,1.512-.47A3.467,3.467,0,0,1,149.5,178.505Z" transform="translate(-134.954 -178.504)" fill="#fff"/>
            </g>
          </g>
          <g id="Group_373" data-name="Group 373" transform="translate(38.856 16.189)">
            <g id="Group_372" data-name="Group 372">
              <path id="Path_149" data-name="Path 149" d="M209.307,222.037a1.29,1.29,0,0,1,.129.371,5.233,5.233,0,0,1,.158,1.061,15.349,15.349,0,0,1-.36,3.5,9.521,9.521,0,0,1-.5,1.884,4.19,4.19,0,0,1-.852,1.353,2.849,2.849,0,0,1-.871.634,1.013,1.013,0,0,1-.376.118,3.7,3.7,0,0,0,1.149-.843,4.279,4.279,0,0,0,.787-1.326,10.171,10.171,0,0,0,.474-1.854,18.057,18.057,0,0,0,.413-3.465A12.626,12.626,0,0,0,209.307,222.037Z" transform="translate(-206.635 -222.037)" fill="#fff"/>
            </g>
          </g>
          <g id="Group_375" data-name="Group 375" transform="translate(42.97 12.991)">
            <g id="Group_374" data-name="Group 374">
              <path id="Path_150" data-name="Path 150" d="M223.766,217.45c-.032.015-.2-.374-.589-.933a7.434,7.434,0,0,0-4.239-2.961c-.656-.169-1.081-.2-1.078-.232a.9.9,0,0,1,.3-.008,4.8,4.8,0,0,1,.809.108,6.513,6.513,0,0,1,1.159.359,6.915,6.915,0,0,1,2.425,1.694,6.485,6.485,0,0,1,.736.965,4.816,4.816,0,0,1,.38.722A.9.9,0,0,1,223.766,217.45Z" transform="translate(-217.86 -213.313)" fill="#fff"/>
            </g>
          </g>
          <g id="Group_377" data-name="Group 377" transform="translate(11.232 34.867)" opacity="0.3">
            <g id="Group_376" data-name="Group 376">
              <path id="Path_151" data-name="Path 151" d="M147.379,274.455a.676.676,0,0,0,.257-1,1.283,1.283,0,0,0-1.056-.362c-1.893.037-3.546,1.3-5.409,1.645a9.138,9.138,0,0,1-4.256-.451,40.141,40.141,0,0,0-4.139-1.231,2.013,2.013,0,0,0-.9-.021.783.783,0,0,0-.6.607c-.037.3.034.52.479.673a35.574,35.574,0,0,0,8.083,1.253A35.883,35.883,0,0,0,147.379,274.455Z" transform="translate(-131.275 -272.994)" fill="#ff7300"/>
            </g>
          </g>
        </g>
      </g>
    </g>
  </g>
</svg>
